<svg xmlns="http://www.w3.org/2000/svg" version="1.1" xmlns:xlink="http://www.w3.org/1999/xlink" width="1000" height="1000"><style>
    #light-icon {
      display: inline;
    }
    #dark-icon {
      display: none;
    }

    @media (prefers-color-scheme: dark) {
      #light-icon {
        display: none;
      }
      #dark-icon {
        display: inline;
      }
    }
  </style><g id="light-icon"><svg xmlns="http://www.w3.org/2000/svg" version="1.1" xmlns:xlink="http://www.w3.org/1999/xlink" width="1000" height="1000"><g clip-path="url(#SvgjsClipPath1144)"><rect width="1000" height="1000" fill="#ffffff"></rect><g transform="matrix(3.1545741324921135,0,0,3.1545741324921135,0,36.27760252365931)"><svg xmlns="http://www.w3.org/2000/svg" version="1.1" xmlns:xlink="http://www.w3.org/1999/xlink" width="317" height="294"><svg viewBox="0 0 317 294" fill="none" xmlns="http://www.w3.org/2000/svg">
<path fill-rule="evenodd" clip-rule="evenodd" d="M158.5 0C198.227 0 234.576 13.5683 262.415 36H275.447C276.137 36 277.024 36.3244 278.061 36.8691C279.351 37.5474 279.871 39.1174 279.871 41.2246V51.6152C279.871 51.8942 279.862 52.1639 279.845 52.4238C303.023 77.9722 317 110.953 317 147C317 183.098 302.984 216.121 279.747 241.685V261.393C279.747 263.504 279.23 265.079 277.939 265.759C276.888 266.313 275.96 266.628 275.185 266.628H263.137C262.446 266.628 261.559 266.306 260.521 265.759C259.231 265.079 258.714 263.504 258.714 261.393V260.891C231.39 281.591 196.49 294 158.5 294C71.0724 294 0 228.291 0 147C0 65.7087 71.0724 0 158.5 0ZM158.5 3C120.816 3 86.2971 15.4027 59.4062 36.0215C59.7328 36.0072 60.0668 36 60.4082 36H73.2969C74.922 36 76.5018 36.1815 78.0352 36.5459C79.612 36.8319 81.0802 37.5358 82.4385 38.6426L82.4707 38.6699L82.499 38.7012C82.975 39.2442 83.4501 39.8313 83.9238 40.4619C84.2842 40.9416 84.6428 41.4705 85 42.0479L85.3564 42.6406L85.3682 42.6611L85.3779 42.6816C85.7586 43.496 86.1366 44.4401 86.5127 45.5117L87.7676 48.8271L112.402 107.647C112.481 107.759 112.542 107.844 112.583 107.903C112.588 107.91 112.592 107.917 112.597 107.924H113.668C113.684 107.886 113.702 107.834 113.721 107.764L113.73 107.729L113.744 107.697L138.533 48.8438C138.997 47.6098 139.366 46.5133 139.642 45.5527L139.646 45.5381L139.65 45.5244C140.032 44.4352 140.465 43.4725 140.951 42.6406C141.426 41.8281 141.903 41.1013 142.384 40.4619C142.858 39.8313 143.333 39.2442 143.809 38.7012L143.837 38.6699L143.869 38.6426C145.222 37.5398 146.644 36.8332 148.132 36.5459C149.665 36.1814 151.246 36 152.871 36H165.479C168.331 36 170.63 36.4953 172.326 37.5391C173.996 38.5664 175.23 39.973 176.019 41.749C176.794 43.4074 177.274 45.2854 177.465 47.376C177.653 49.4339 177.747 51.536 177.747 53.6816V141.722C177.747 143.803 177.229 145.358 175.937 146.028C174.885 146.574 173.958 146.884 173.185 146.884H161.137C160.448 146.884 159.563 146.567 158.524 146.028C157.232 145.358 156.714 143.803 156.714 141.722V61.9072H156.677L132.605 118.321C131.854 120.552 131.009 122.694 130.069 124.748C129.113 126.839 127.824 128.79 126.205 130.601L126.199 130.607C124.749 132.17 123.137 133.245 121.36 133.808L121.353 133.811L121.344 133.812C119.703 134.271 117.835 134.497 115.745 134.497H110.002C107.822 134.497 105.95 134.272 104.396 133.811L104.383 133.807L104.37 133.802C102.79 133.238 101.191 132.17 99.5703 130.63L99.5518 130.612L99.5352 130.592C98.2962 129.142 97.1557 127.471 96.1143 125.581L96.1055 125.564L96.0977 125.547C95.1599 123.496 94.1778 121.094 93.1504 118.343L69.1943 62.002L69.1875 61.9873L69.1826 61.9717C69.173 61.9442 69.1622 61.9236 69.1543 61.9072H69.0332V141.722C69.0332 143.794 68.5187 145.343 67.2393 146.018L67.2402 146.019C66.2743 146.57 65.391 146.884 64.6113 146.884H52.5625C51.7887 146.884 50.862 146.574 49.8105 146.028C48.5186 145.358 48 143.803 48 141.722V53.6816C48 51.536 48.094 49.4339 48.2822 47.376C48.3509 46.593 48.4569 45.8429 48.6006 45.126C20.4172 71.2051 3 107.243 3 147C3 189.021 22.4583 226.883 53.5186 253.228C51.1332 249.392 49.5211 244.971 48.6797 239.971L48.6787 239.962C47.9075 234.806 47.5215 229.247 47.5215 223.287V196.564C47.5215 190.153 48.0023 184.363 48.9678 179.198C49.9374 173.922 51.7363 169.399 54.373 165.642L54.3779 165.635L54.6377 165.284C57.3523 161.689 60.9806 158.918 65.5078 156.97C70.1968 154.861 76.2188 153.821 83.5479 153.821H135.903C136.605 153.821 137.51 154.14 138.576 154.686C139.897 155.361 140.431 156.934 140.431 159.045V169.438C140.431 171.627 139.902 173.253 138.576 173.932C137.51 174.477 136.605 174.796 135.903 174.796H84.2676C81.0281 174.796 78.604 175.11 76.96 175.71L76.9453 175.715L76.9297 175.72C75.2151 176.228 73.8731 177.196 72.8848 178.629L72.877 178.641C71.867 180.019 71.1265 181.618 70.6611 183.443L70.5264 184.111C70.227 185.681 70.035 187.321 69.9521 189.031C69.8566 190.914 69.8086 192.616 69.8086 194.136V225.582C69.8086 227.639 69.8563 229.515 69.9512 231.211C70.1406 232.809 70.3304 234.275 70.5195 235.607C70.9885 237.448 71.6433 239.2 72.4824 240.864C73.3109 242.337 74.6463 243.392 76.5391 244.012L76.9258 244.131L76.9424 244.136L76.96 244.142C78.604 244.741 81.0281 245.056 84.2676 245.056H135.903C136.605 245.056 137.511 245.376 138.576 245.921C139.896 246.597 140.431 248.168 140.431 250.279V260.941C140.431 263.053 139.896 264.625 138.576 265.301C137.51 265.846 136.605 266.165 135.903 266.165H83.5479C77.4675 266.165 72.2871 265.49 68.0205 264.126C93.4966 281.036 124.727 291 158.5 291C196.709 291 231.665 278.249 258.714 257.111V180.303H258.679L234.606 237.615C233.855 239.88 233.01 242.056 232.071 244.143C231.116 246.265 229.827 248.247 228.208 250.086L228.201 250.093C226.752 251.679 225.14 252.772 223.362 253.344L223.354 253.347L223.346 253.349C221.704 253.815 219.835 254.044 217.745 254.044H212.002C209.822 254.044 207.949 253.816 206.394 253.347L206.381 253.343L206.368 253.338C204.787 252.765 203.187 251.68 201.567 250.115L201.549 250.098L201.532 250.078C200.294 248.606 199.154 246.908 198.113 244.988L198.104 244.972L198.097 244.955C197.159 242.872 196.177 240.431 195.149 237.636L171.193 180.401L171.187 180.387L171.182 180.371C171.172 180.342 171.161 180.32 171.152 180.303H171.033V261.393C171.033 263.494 170.52 265.063 169.242 265.748L169.243 265.749C168.277 266.309 167.393 266.628 166.611 266.628H154.562C153.787 266.628 152.859 266.313 151.808 265.759C150.517 265.079 150 263.503 150 261.393V171.954C150 169.775 150.094 167.641 150.282 165.551C150.473 163.341 150.951 161.389 151.727 159.703C152.516 157.987 153.753 156.606 155.419 155.564L155.43 155.558C157.214 154.504 159.554 154 162.408 154H175.297C176.912 154 178.483 154.183 180.008 154.549C181.596 154.836 183.076 155.555 184.441 156.686L184.474 156.713L184.501 156.744C184.977 157.296 185.452 157.892 185.926 158.532C186.286 159.019 186.645 159.556 187.002 160.143L187.358 160.745L187.369 160.765L187.379 160.786C187.759 161.613 188.138 162.572 188.514 163.66L189.774 167.044L214.403 226.783C214.482 226.897 214.543 226.985 214.585 227.045C214.59 227.052 214.594 227.059 214.599 227.065H215.666L215.667 227.063C215.684 227.025 215.702 226.971 215.721 226.899L215.729 226.865L215.742 226.833L240.535 167.036C240.997 165.786 241.366 164.674 241.641 163.7L241.645 163.687L241.649 163.673C242.031 162.567 242.463 161.59 242.949 160.745C243.424 159.92 243.902 159.182 244.382 158.532C244.856 157.892 245.331 157.296 245.807 156.744L245.834 156.713L245.866 156.686C247.222 155.563 248.647 154.844 250.14 154.553C251.671 154.184 253.248 154 254.871 154H267.479C270.332 154 272.632 154.504 274.329 155.564C275.999 156.608 277.233 158.037 278.021 159.839L278.162 160.157C278.854 161.761 279.286 163.561 279.465 165.551C279.653 167.641 279.747 169.775 279.747 171.954V237.165C301.183 212.473 314 181.105 314 147C314 112.341 300.762 80.5105 278.695 55.6387C278.509 55.8246 278.298 55.9825 278.061 56.1074C277.025 56.6519 276.137 56.9756 275.447 56.9756H225.171C222.019 56.9756 219.66 57.2896 218.063 57.8877L218.034 57.8975C216.37 58.404 215.064 59.3703 214.102 60.8037L214.098 60.8096L214.094 60.8145C213.107 62.1982 212.382 63.8032 211.929 65.6367C211.563 67.4026 211.333 69.2595 211.241 71.207C211.148 73.0893 211.105 74.7952 211.105 76.3154V82.3936H272.485C273.435 82.3936 274.721 82.7051 276.31 83.2793C277.202 83.6022 277.89 84.1645 278.347 84.9619C278.797 85.7491 279.004 86.7331 279.004 87.8809V98.8535C279.004 100.045 278.798 101.063 278.35 101.872C277.895 102.693 277.207 103.27 276.31 103.595C274.721 104.169 273.435 104.481 272.485 104.481H211.105V107.762C211.105 109.814 211.147 111.687 211.239 113.379C211.424 114.98 211.613 116.448 211.798 117.784C212.256 119.631 212.892 121.391 213.712 123.06C214.519 124.527 215.82 125.576 217.653 126.192L218.029 126.311L218.047 126.316L218.063 126.322C219.66 126.92 222.019 127.233 225.171 127.233H275.447C276.137 127.233 277.024 127.558 278.061 128.103C279.351 128.781 279.871 130.351 279.871 132.458V143.121C279.871 145.228 279.351 146.798 278.061 147.477C277.024 148.021 276.137 148.346 275.447 148.346H224.471C216.96 148.346 210.856 147.258 206.19 145.057L206.18 145.051C201.629 142.767 198.056 139.699 195.482 135.841L195.475 135.829C193.007 131.897 191.352 127.332 190.502 122.147L190.501 122.139C189.75 116.983 189.376 111.423 189.376 105.464V78.7412C189.376 72.3301 189.846 66.5411 190.786 61.3779C191.73 56.1038 193.478 51.5809 196.045 47.8242L196.05 47.8174C198.719 44.0514 202.338 41.1639 206.891 39.1514C211.46 37.0414 217.332 36 224.471 36H257.565C230.679 15.3941 196.171 3 158.5 3Z" fill="#1C1C1C"></path>
</svg></svg></g></g><defs><clipPath id="SvgjsClipPath1144"><rect width="1000" height="1000" x="0" y="0" rx="300" ry="300"></rect></clipPath></defs></svg></g><g id="dark-icon"><svg xmlns="http://www.w3.org/2000/svg" version="1.1" xmlns:xlink="http://www.w3.org/1999/xlink" width="1000" height="1000"><g clip-path="url(#SvgjsClipPath1145)"><rect width="1000" height="1000" fill="#000000"></rect><g transform="matrix(3.1446540880503147,0,0,3.1446540880503147,-5.684341886080802e-14,39.308176100628884)"><svg xmlns="http://www.w3.org/2000/svg" version="1.1" xmlns:xlink="http://www.w3.org/1999/xlink" width="318" height="293"><svg viewBox="0 0 318 293" fill="none" xmlns="http://www.w3.org/2000/svg">
<path fill-rule="evenodd" clip-rule="evenodd" d="M159 0C198.922 0 235.447 13.5713 263.395 36H276.447C277.137 36 278.024 36.3244 279.061 36.8691C280.351 37.5474 280.871 39.1174 280.871 41.2246V51.6152C280.871 51.8775 280.863 52.1315 280.848 52.377C304.027 77.8187 318 110.635 318 146.5C318 182.286 304.088 215.036 281 240.454V261.765C281 263.876 280.483 265.451 279.192 266.131C278.141 266.685 277.213 267 276.438 267H264.39C263.699 267 262.812 266.678 261.774 266.131C260.483 265.451 259.967 263.876 259.967 261.765V259.674C232.491 280.503 197.31 293 159 293C71.3059 293 0 227.524 0 146.5C0 65.4759 71.3059 0 159 0ZM159 3C121.059 3 86.3206 15.4482 59.3037 36.125C60.0374 36.0421 60.8143 36 61.6338 36H74.5225C76.1476 36 77.7275 36.1815 79.2607 36.5459C80.8376 36.8319 82.3058 37.5358 83.6641 38.6426L83.6963 38.6699L83.7246 38.7012C84.2006 39.2442 84.6757 39.8314 85.1494 40.4619C85.5098 40.9416 85.8684 41.4705 86.2256 42.0479L86.582 42.6406L86.5938 42.6611L86.6035 42.6816C86.9842 43.496 87.3622 44.4401 87.7383 45.5117L88.9932 48.8271L113.628 107.647C113.706 107.759 113.767 107.844 113.809 107.903C113.814 107.91 113.818 107.918 113.822 107.924H114.894C114.91 107.886 114.928 107.834 114.946 107.764L114.956 107.729L114.97 107.697L139.759 48.8438C140.222 47.6099 140.592 46.5133 140.867 45.5527L140.871 45.5381L140.876 45.5244C141.258 44.4352 141.691 43.4725 142.177 42.6406C142.652 41.8281 143.129 41.1013 143.609 40.4619C144.083 39.8314 144.558 39.2442 145.034 38.7012L145.062 38.6699L145.095 38.6426C146.448 37.5399 147.869 36.8332 149.357 36.5459C150.891 36.1814 152.471 36 154.097 36H166.705C169.556 36 171.855 36.4954 173.552 37.5391C175.222 38.5664 176.455 39.9731 177.244 41.749C178.019 43.4074 178.499 45.2854 178.69 47.376C178.879 49.4339 178.973 51.536 178.973 53.6816V141.722C178.973 143.803 178.454 145.358 177.162 146.028C176.111 146.574 175.184 146.884 174.41 146.884H162.362C161.674 146.884 160.788 146.567 159.75 146.028C158.458 145.358 157.939 143.803 157.939 141.722V61.9072H157.902L133.831 118.321C133.08 120.552 132.234 122.694 131.295 124.748C130.339 126.839 129.05 128.79 127.431 130.601L127.425 130.607C125.975 132.17 124.362 133.245 122.586 133.808L122.578 133.811L122.569 133.812C120.929 134.271 119.06 134.497 116.971 134.497H111.228C109.048 134.497 107.175 134.272 105.621 133.811L105.608 133.807L105.596 133.802C104.016 133.238 102.416 132.17 100.796 130.63L100.777 130.612L100.761 130.592C99.5218 129.142 98.3813 127.471 97.3398 125.581L97.3311 125.564L97.3232 125.547C96.3855 123.496 95.4034 121.094 94.376 118.343L70.4199 62.002L70.4131 61.9873L70.4082 61.9717C70.3986 61.9442 70.3878 61.9236 70.3799 61.9072H70.2588V141.722C70.2588 143.794 69.7443 145.343 68.4648 146.018L68.4658 146.019C67.4999 146.57 66.6165 146.884 65.8369 146.884H53.7881C53.0143 146.884 52.0875 146.574 51.0361 146.028C49.7442 145.358 49.2256 143.803 49.2256 141.722V53.6816C49.2256 51.536 49.3196 49.4339 49.5078 47.376C49.6242 46.0493 49.8481 44.8169 50.1807 43.6807C21.0645 69.7664 3 106.219 3 146.5C3 188.986 23.0967 227.212 55.0605 253.508C52.6402 249.649 51.0061 245.194 50.1572 240.149L50.1562 240.141C49.385 234.984 49 229.425 49 223.466V196.743C49 190.331 49.4809 184.542 50.4463 179.378C51.4159 174.101 53.2138 169.578 55.8506 165.82L55.8555 165.813L56.1152 165.463C58.8299 161.867 62.459 159.097 66.9863 157.148C71.6754 155.04 77.6972 154 85.0264 154H137.382C138.083 154 138.989 154.319 140.055 154.864C141.375 155.54 141.909 157.112 141.909 159.224V169.616C141.909 171.806 141.381 173.431 140.055 174.11C138.989 174.656 138.083 174.974 137.382 174.975H85.7461C82.5065 174.975 80.0816 175.289 78.4375 175.889L78.4238 175.894L78.4082 175.898C76.6934 176.407 75.3515 177.375 74.3633 178.808L74.3584 178.813L74.3545 178.819C73.3446 180.198 72.6051 181.797 72.1396 183.622L72.0049 184.29C71.7053 185.86 71.5125 187.5 71.4297 189.21C71.3341 191.093 71.2871 192.795 71.2871 194.314V225.761C71.2871 227.818 71.3339 229.694 71.4287 231.39C71.6181 232.988 71.808 234.454 71.9971 235.786C72.466 237.626 73.1208 239.378 73.96 241.043C74.7884 242.516 76.1245 243.57 78.0176 244.19L78.4043 244.31L78.4209 244.314L78.4385 244.32C80.0825 244.92 82.5067 245.234 85.7461 245.234H137.382C138.084 245.234 138.99 245.554 140.055 246.1C141.375 246.776 141.909 248.347 141.909 250.458V261.12C141.909 263.232 141.375 264.803 140.055 265.479C138.989 266.025 138.083 266.344 137.382 266.344H85.0264C79.303 266.344 74.3769 265.746 70.2598 264.538C95.4375 280.588 126.009 290 159 290C197.538 290 232.773 277.157 259.967 255.893V180.675H259.932L235.859 237.987C235.108 240.252 234.263 242.428 233.324 244.515C232.369 246.637 231.08 248.619 229.461 250.458L229.454 250.465C228.005 252.051 226.393 253.144 224.615 253.716L224.607 253.719L224.599 253.721C222.957 254.187 221.088 254.416 218.998 254.416H213.255C211.075 254.416 209.202 254.188 207.646 253.719L207.634 253.715L207.621 253.71C206.04 253.137 204.44 252.052 202.82 250.487L202.802 250.47L202.785 250.45C201.547 248.978 200.407 247.28 199.366 245.36L199.357 245.344L199.35 245.327C198.412 243.244 197.43 240.803 196.402 238.008L172.446 180.773L172.439 180.759L172.435 180.743C172.425 180.714 172.414 180.692 172.405 180.675H172.286V261.765C172.286 263.866 171.773 265.435 170.495 266.12L170.496 266.121C169.53 266.681 168.646 267 167.864 267H155.815C155.04 267 154.112 266.685 153.061 266.131C151.77 265.451 151.253 263.876 151.253 261.765V172.326C151.253 170.147 151.347 168.013 151.535 165.923C151.726 163.713 152.204 161.761 152.979 160.075C153.769 158.359 155.006 156.978 156.672 155.937L156.683 155.93C158.467 154.877 160.807 154.372 163.661 154.372H176.55C178.165 154.372 179.736 154.555 181.261 154.921C182.849 155.209 184.329 155.927 185.694 157.058L185.727 157.085L185.754 157.116C186.23 157.668 186.705 158.264 187.179 158.904C187.539 159.391 187.898 159.928 188.255 160.515L188.611 161.117L188.622 161.137L188.632 161.158C189.012 161.985 189.391 162.944 189.767 164.032L191.027 167.416L215.656 227.155C215.735 227.269 215.796 227.357 215.838 227.417C215.843 227.424 215.847 227.431 215.852 227.438H216.919L216.92 227.436C216.937 227.397 216.955 227.343 216.974 227.271L216.982 227.237L216.995 227.205L241.788 167.408C242.25 166.158 242.618 165.046 242.894 164.072L242.897 164.059L242.902 164.045C243.284 162.939 243.716 161.962 244.202 161.117C244.677 160.292 245.155 159.554 245.635 158.904C246.108 158.264 246.584 157.668 247.06 157.116L247.087 157.085L247.119 157.058C248.475 155.935 249.9 155.216 251.393 154.925C252.924 154.556 254.501 154.372 256.124 154.372H268.732C271.584 154.372 273.885 154.876 275.582 155.937C277.252 156.98 278.486 158.409 279.273 160.211L279.415 160.529C280.107 162.133 280.539 163.933 280.718 165.923C280.906 168.013 281 170.147 281 172.326V235.931C302.285 211.388 315 180.292 315 146.5C315 112.036 301.775 80.3769 279.721 55.6133C279.528 55.8105 279.309 55.9769 279.061 56.1074C278.025 56.6519 277.137 56.9756 276.447 56.9756H226.171C223.019 56.9756 220.66 57.2896 219.063 57.8877L219.034 57.8975C217.37 58.404 216.064 59.3703 215.102 60.8037L215.098 60.8096L215.094 60.8145C214.107 62.1982 213.382 63.8032 212.929 65.6367C212.563 67.4026 212.333 69.2595 212.241 71.207C212.148 73.0893 212.105 74.7952 212.105 76.3154V82.3936H273.485C274.435 82.3936 275.721 82.7051 277.31 83.2793C278.202 83.6022 278.89 84.1645 279.347 84.9619C279.797 85.7491 280.004 86.7331 280.004 87.8809V98.8535C280.004 100.045 279.798 101.063 279.35 101.872C278.895 102.693 278.207 103.27 277.31 103.595C275.721 104.169 274.435 104.481 273.485 104.481H212.105V107.762C212.105 109.814 212.147 111.687 212.239 113.379C212.424 114.98 212.613 116.448 212.798 117.784C213.256 119.631 213.892 121.391 214.712 123.06C215.519 124.527 216.82 125.576 218.653 126.192L219.029 126.311L219.047 126.316L219.063 126.322C220.66 126.92 223.019 127.233 226.171 127.233H276.447C277.137 127.233 278.024 127.558 279.061 128.103C280.351 128.781 280.871 130.351 280.871 132.458V143.121C280.871 145.228 280.351 146.798 279.061 147.477C278.024 148.021 277.137 148.346 276.447 148.346H225.471C217.96 148.346 211.856 147.258 207.19 145.057L207.18 145.051C202.629 142.767 199.056 139.699 196.482 135.841L196.475 135.829C194.007 131.897 192.352 127.332 191.502 122.147L191.501 122.139C190.75 116.983 190.376 111.423 190.376 105.464V78.7412C190.376 72.3301 190.846 66.5411 191.786 61.3779C192.73 56.1038 194.478 51.5809 197.045 47.8242L197.05 47.8174C199.719 44.0514 203.338 41.1639 207.891 39.1514C212.46 37.0414 218.332 36 225.471 36H258.533C231.54 15.3979 196.864 3 159 3Z" fill="#E3E3E3"></path>
</svg></svg></g></g><defs><clipPath id="SvgjsClipPath1145"><rect width="1000" height="1000" x="0" y="0" rx="300" ry="300"></rect></clipPath></defs></svg></g></svg>