<svg viewBox="0 0 318 293" fill="none" xmlns="http://www.w3.org/2000/svg">
<path fill-rule="evenodd" clip-rule="evenodd" d="M159 0C198.922 0 235.447 13.5713 263.395 36H276.447C277.137 36 278.024 36.3244 279.061 36.8691C280.351 37.5474 280.871 39.1174 280.871 41.2246V51.6152C280.871 51.8775 280.863 52.1315 280.848 52.377C304.027 77.8187 318 110.635 318 146.5C318 182.286 304.088 215.036 281 240.454V261.765C281 263.876 280.483 265.451 279.192 266.131C278.141 266.685 277.213 267 276.438 267H264.39C263.699 267 262.812 266.678 261.774 266.131C260.483 265.451 259.967 263.876 259.967 261.765V259.674C232.491 280.503 197.31 293 159 293C71.3059 293 0 227.524 0 146.5C0 65.4759 71.3059 0 159 0ZM159 3C121.059 3 86.3206 15.4482 59.3037 36.125C60.0374 36.0421 60.8143 36 61.6338 36H74.5225C76.1476 36 77.7275 36.1815 79.2607 36.5459C80.8376 36.8319 82.3058 37.5358 83.6641 38.6426L83.6963 38.6699L83.7246 38.7012C84.2006 39.2442 84.6757 39.8314 85.1494 40.4619C85.5098 40.9416 85.8684 41.4705 86.2256 42.0479L86.582 42.6406L86.5938 42.6611L86.6035 42.6816C86.9842 43.496 87.3622 44.4401 87.7383 45.5117L88.9932 48.8271L113.628 107.647C113.706 107.759 113.767 107.844 113.809 107.903C113.814 107.91 113.818 107.918 113.822 107.924H114.894C114.91 107.886 114.928 107.834 114.946 107.764L114.956 107.729L114.97 107.697L139.759 48.8438C140.222 47.6099 140.592 46.5133 140.867 45.5527L140.871 45.5381L140.876 45.5244C141.258 44.4352 141.691 43.4725 142.177 42.6406C142.652 41.8281 143.129 41.1013 143.609 40.4619C144.083 39.8314 144.558 39.2442 145.034 38.7012L145.062 38.6699L145.095 38.6426C146.448 37.5399 147.869 36.8332 149.357 36.5459C150.891 36.1814 152.471 36 154.097 36H166.705C169.556 36 171.855 36.4954 173.552 37.5391C175.222 38.5664 176.455 39.9731 177.244 41.749C178.019 43.4074 178.499 45.2854 178.69 47.376C178.879 49.4339 178.973 51.536 178.973 53.6816V141.722C178.973 143.803 178.454 145.358 177.162 146.028C176.111 146.574 175.184 146.884 174.41 146.884H162.362C161.674 146.884 160.788 146.567 159.75 146.028C158.458 145.358 157.939 143.803 157.939 141.722V61.9072H157.902L133.831 118.321C133.08 120.552 132.234 122.694 131.295 124.748C130.339 126.839 129.05 128.79 127.431 130.601L127.425 130.607C125.975 132.17 124.362 133.245 122.586 133.808L122.578 133.811L122.569 133.812C120.929 134.271 119.06 134.497 116.971 134.497H111.228C109.048 134.497 107.175 134.272 105.621 133.811L105.608 133.807L105.596 133.802C104.016 133.238 102.416 132.17 100.796 130.63L100.777 130.612L100.761 130.592C99.5218 129.142 98.3813 127.471 97.3398 125.581L97.3311 125.564L97.3232 125.547C96.3855 123.496 95.4034 121.094 94.376 118.343L70.4199 62.002L70.4131 61.9873L70.4082 61.9717C70.3986 61.9442 70.3878 61.9236 70.3799 61.9072H70.2588V141.722C70.2588 143.794 69.7443 145.343 68.4648 146.018L68.4658 146.019C67.4999 146.57 66.6165 146.884 65.8369 146.884H53.7881C53.0143 146.884 52.0875 146.574 51.0361 146.028C49.7442 145.358 49.2256 143.803 49.2256 141.722V53.6816C49.2256 51.536 49.3196 49.4339 49.5078 47.376C49.6242 46.0493 49.8481 44.8169 50.1807 43.6807C21.0645 69.7664 3 106.219 3 146.5C3 188.986 23.0967 227.212 55.0605 253.508C52.6402 249.649 51.0061 245.194 50.1572 240.149L50.1562 240.141C49.385 234.984 49 229.425 49 223.466V196.743C49 190.331 49.4809 184.542 50.4463 179.378C51.4159 174.101 53.2138 169.578 55.8506 165.82L55.8555 165.813L56.1152 165.463C58.8299 161.867 62.459 159.097 66.9863 157.148C71.6754 155.04 77.6972 154 85.0264 154H137.382C138.083 154 138.989 154.319 140.055 154.864C141.375 155.54 141.909 157.112 141.909 159.224V169.616C141.909 171.806 141.381 173.431 140.055 174.11C138.989 174.656 138.083 174.974 137.382 174.975H85.7461C82.5065 174.975 80.0816 175.289 78.4375 175.889L78.4238 175.894L78.4082 175.898C76.6934 176.407 75.3515 177.375 74.3633 178.808L74.3584 178.813L74.3545 178.819C73.3446 180.198 72.6051 181.797 72.1396 183.622L72.0049 184.29C71.7053 185.86 71.5125 187.5 71.4297 189.21C71.3341 191.093 71.2871 192.795 71.2871 194.314V225.761C71.2871 227.818 71.3339 229.694 71.4287 231.39C71.6181 232.988 71.808 234.454 71.9971 235.786C72.466 237.626 73.1208 239.378 73.96 241.043C74.7884 242.516 76.1245 243.57 78.0176 244.19L78.4043 244.31L78.4209 244.314L78.4385 244.32C80.0825 244.92 82.5067 245.234 85.7461 245.234H137.382C138.084 245.234 138.99 245.554 140.055 246.1C141.375 246.776 141.909 248.347 141.909 250.458V261.12C141.909 263.232 141.375 264.803 140.055 265.479C138.989 266.025 138.083 266.344 137.382 266.344H85.0264C79.303 266.344 74.3769 265.746 70.2598 264.538C95.4375 280.588 126.009 290 159 290C197.538 290 232.773 277.157 259.967 255.893V180.675H259.932L235.859 237.987C235.108 240.252 234.263 242.428 233.324 244.515C232.369 246.637 231.08 248.619 229.461 250.458L229.454 250.465C228.005 252.051 226.393 253.144 224.615 253.716L224.607 253.719L224.599 253.721C222.957 254.187 221.088 254.416 218.998 254.416H213.255C211.075 254.416 209.202 254.188 207.646 253.719L207.634 253.715L207.621 253.71C206.04 253.137 204.44 252.052 202.82 250.487L202.802 250.47L202.785 250.45C201.547 248.978 200.407 247.28 199.366 245.36L199.357 245.344L199.35 245.327C198.412 243.244 197.43 240.803 196.402 238.008L172.446 180.773L172.439 180.759L172.435 180.743C172.425 180.714 172.414 180.692 172.405 180.675H172.286V261.765C172.286 263.866 171.773 265.435 170.495 266.12L170.496 266.121C169.53 266.681 168.646 267 167.864 267H155.815C155.04 267 154.112 266.685 153.061 266.131C151.77 265.451 151.253 263.876 151.253 261.765V172.326C151.253 170.147 151.347 168.013 151.535 165.923C151.726 163.713 152.204 161.761 152.979 160.075C153.769 158.359 155.006 156.978 156.672 155.937L156.683 155.93C158.467 154.877 160.807 154.372 163.661 154.372H176.55C178.165 154.372 179.736 154.555 181.261 154.921C182.849 155.209 184.329 155.927 185.694 157.058L185.727 157.085L185.754 157.116C186.23 157.668 186.705 158.264 187.179 158.904C187.539 159.391 187.898 159.928 188.255 160.515L188.611 161.117L188.622 161.137L188.632 161.158C189.012 161.985 189.391 162.944 189.767 164.032L191.027 167.416L215.656 227.155C215.735 227.269 215.796 227.357 215.838 227.417C215.843 227.424 215.847 227.431 215.852 227.438H216.919L216.92 227.436C216.937 227.397 216.955 227.343 216.974 227.271L216.982 227.237L216.995 227.205L241.788 167.408C242.25 166.158 242.618 165.046 242.894 164.072L242.897 164.059L242.902 164.045C243.284 162.939 243.716 161.962 244.202 161.117C244.677 160.292 245.155 159.554 245.635 158.904C246.108 158.264 246.584 157.668 247.06 157.116L247.087 157.085L247.119 157.058C248.475 155.935 249.9 155.216 251.393 154.925C252.924 154.556 254.501 154.372 256.124 154.372H268.732C271.584 154.372 273.885 154.876 275.582 155.937C277.252 156.98 278.486 158.409 279.273 160.211L279.415 160.529C280.107 162.133 280.539 163.933 280.718 165.923C280.906 168.013 281 170.147 281 172.326V235.931C302.285 211.388 315 180.292 315 146.5C315 112.036 301.775 80.3769 279.721 55.6133C279.528 55.8105 279.309 55.9769 279.061 56.1074C278.025 56.6519 277.137 56.9756 276.447 56.9756H226.171C223.019 56.9756 220.66 57.2896 219.063 57.8877L219.034 57.8975C217.37 58.404 216.064 59.3703 215.102 60.8037L215.098 60.8096L215.094 60.8145C214.107 62.1982 213.382 63.8032 212.929 65.6367C212.563 67.4026 212.333 69.2595 212.241 71.207C212.148 73.0893 212.105 74.7952 212.105 76.3154V82.3936H273.485C274.435 82.3936 275.721 82.7051 277.31 83.2793C278.202 83.6022 278.89 84.1645 279.347 84.9619C279.797 85.7491 280.004 86.7331 280.004 87.8809V98.8535C280.004 100.045 279.798 101.063 279.35 101.872C278.895 102.693 278.207 103.27 277.31 103.595C275.721 104.169 274.435 104.481 273.485 104.481H212.105V107.762C212.105 109.814 212.147 111.687 212.239 113.379C212.424 114.98 212.613 116.448 212.798 117.784C213.256 119.631 213.892 121.391 214.712 123.06C215.519 124.527 216.82 125.576 218.653 126.192L219.029 126.311L219.047 126.316L219.063 126.322C220.66 126.92 223.019 127.233 226.171 127.233H276.447C277.137 127.233 278.024 127.558 279.061 128.103C280.351 128.781 280.871 130.351 280.871 132.458V143.121C280.871 145.228 280.351 146.798 279.061 147.477C278.024 148.021 277.137 148.346 276.447 148.346H225.471C217.96 148.346 211.856 147.258 207.19 145.057L207.18 145.051C202.629 142.767 199.056 139.699 196.482 135.841L196.475 135.829C194.007 131.897 192.352 127.332 191.502 122.147L191.501 122.139C190.75 116.983 190.376 111.423 190.376 105.464V78.7412C190.376 72.3301 190.846 66.5411 191.786 61.3779C192.73 56.1038 194.478 51.5809 197.045 47.8242L197.05 47.8174C199.719 44.0514 203.338 41.1639 207.891 39.1514C212.46 37.0414 218.332 36 225.471 36H258.533C231.54 15.3979 196.864 3 159 3Z" fill="#E3E3E3"/>
</svg>
