<svg xmlns="http://www.w3.org/2000/svg" version="1.1" xmlns:xlink="http://www.w3.org/1999/xlink" width="1000" height="1000"><style>
    #light-icon {
      display: inline;
    }
    #dark-icon {
      display: none;
    }

    @media (prefers-color-scheme: dark) {
      #light-icon {
        display: none;
      }
      #dark-icon {
        display: inline;
      }
    }
  </style><g id="light-icon"><svg xmlns="http://www.w3.org/2000/svg" version="1.1" xmlns:xlink="http://www.w3.org/1999/xlink" width="1000" height="1000"><g><g transform="matrix(4.065040650406504,0,0,4.065040650406504,95.52845528455282,-5.684341886080802e-14)"><svg xmlns="http://www.w3.org/2000/svg" version="1.1" xmlns:xlink="http://www.w3.org/1999/xlink" width="199" height="246"><svg viewBox="0 0 199 246" fill="none" xmlns="http://www.w3.org/2000/svg">
<g filter="url(#filter0_d_108_724)">
<path fill-rule="evenodd" clip-rule="evenodd" d="M195 4.00001C195 1.79087 193.209 0 191 0H172.38C170.717 0 169.227 1.02965 168.639 2.58578L100.074 183.99C100.008 184.165 99.8411 184.28 99.6548 184.28C99.4685 184.28 99.3016 184.165 99.2358 183.99L30.671 2.58577C30.0828 1.02964 28.5929 0 26.9294 0H8C5.79086 0 4 1.79086 4 4V232.688V234C4 236.209 5.79086 238 8 238H172.712H191C193.209 238 195 236.209 195 234V232.688V4.00001ZM26.9982 50.2144C26.9436 50.0731 26.8078 49.98 26.6563 49.98C26.4534 49.98 26.2891 50.1449 26.2898 50.3478L26.8932 216.483C26.9012 218.687 28.6897 220.469 30.8931 220.469H99.3452H168.107C170.31 220.469 172.099 218.687 172.107 216.483L172.71 50.3476C172.711 50.1448 172.547 49.98 172.344 49.98C172.192 49.98 172.056 50.0733 172.002 50.2148L109.928 211.636C109.334 213.181 107.849 214.2 106.194 214.2H93.1105C91.4577 214.2 89.9751 213.183 89.3794 211.642L26.9982 50.2144Z" fill="#1A1A1A"></path>
</g>
<defs>
<filter id="filter0_d_108_724" x="0" y="0" width="199" height="246" filterUnits="userSpaceOnUse" color-interpolation-filters="sRGB">
<feFlood flood-opacity="0" result="BackgroundImageFix"></feFlood>
<feColorMatrix in="SourceAlpha" type="matrix" values="0 0 0 0 0 0 0 0 0 0 0 0 0 0 0 0 0 0 127 0" result="hardAlpha"></feColorMatrix>
<feOffset dy="4"></feOffset>
<feGaussianBlur stdDeviation="2"></feGaussianBlur>
<feComposite in2="hardAlpha" operator="out"></feComposite>
<feColorMatrix type="matrix" values="0 0 0 0 0 0 0 0 0 0 0 0 0 0 0 0 0 0 0.25 0"></feColorMatrix>
<feBlend mode="normal" in2="BackgroundImageFix" result="effect1_dropShadow_108_724"></feBlend>
<feBlend mode="normal" in="SourceGraphic" in2="effect1_dropShadow_108_724" result="shape"></feBlend>
</filter>
</defs>
</svg></svg></g></g></svg></g><g id="dark-icon"><svg xmlns="http://www.w3.org/2000/svg" version="1.1" xmlns:xlink="http://www.w3.org/1999/xlink" width="1000" height="1000"><g><g transform="matrix(4.065040650406504,0,0,4.065040650406504,95.52845528455282,-5.684341886080802e-14)"><svg xmlns="http://www.w3.org/2000/svg" version="1.1" xmlns:xlink="http://www.w3.org/1999/xlink" width="199" height="246"><svg viewBox="0 0 199 246" fill="none" xmlns="http://www.w3.org/2000/svg">
<g filter="url(#filter0_d_108_728)">
<path fill-rule="evenodd" clip-rule="evenodd" d="M195 4.00001C195 1.79087 193.209 0 191 0H172.38C170.717 0 169.227 1.02965 168.639 2.58578L100.074 183.99C100.008 184.165 99.8411 184.28 99.6548 184.28C99.4685 184.28 99.3016 184.165 99.2358 183.99L30.671 2.58577C30.0828 1.02964 28.5929 0 26.9294 0H8C5.79086 0 4 1.79086 4 4V234C4 236.209 5.79086 238 8 238H191C193.209 238 195 236.209 195 234V4.00001ZM26.9982 50.2144C26.9436 50.0731 26.8078 49.98 26.6563 49.98C26.4534 49.98 26.2891 50.1449 26.2898 50.3478L26.8932 216.483C26.9012 218.687 28.6897 220.469 30.8931 220.469H168.107C170.31 220.469 172.099 218.687 172.107 216.483L172.71 50.3476C172.711 50.1448 172.547 49.98 172.344 49.98C172.192 49.98 172.056 50.0733 172.002 50.2148L109.928 211.636C109.334 213.181 107.849 214.2 106.194 214.2H93.1105C91.4577 214.2 89.9751 213.183 89.3793 211.642L26.9982 50.2144Z" fill="#E6E6E6"></path>
</g>
<defs>
<filter id="filter0_d_108_728" x="0" y="0" width="199" height="246" filterUnits="userSpaceOnUse" color-interpolation-filters="sRGB">
<feFlood flood-opacity="0" result="BackgroundImageFix"></feFlood>
<feColorMatrix in="SourceAlpha" type="matrix" values="0 0 0 0 0 0 0 0 0 0 0 0 0 0 0 0 0 0 127 0" result="hardAlpha"></feColorMatrix>
<feOffset dy="4"></feOffset>
<feGaussianBlur stdDeviation="2"></feGaussianBlur>
<feComposite in2="hardAlpha" operator="out"></feComposite>
<feColorMatrix type="matrix" values="0 0 0 0 0 0 0 0 0 0 0 0 0 0 0 0 0 0 0.25 0"></feColorMatrix>
<feBlend mode="normal" in2="BackgroundImageFix" result="effect1_dropShadow_108_728"></feBlend>
<feBlend mode="normal" in="SourceGraphic" in2="effect1_dropShadow_108_728" result="shape"></feBlend>
</filter>
</defs>
</svg></svg></g></g></svg></g></svg>