<svg xmlns="http://www.w3.org/2000/svg" version="1.1" xmlns:xlink="http://www.w3.org/1999/xlink" width="1000" height="1000"><style>
    #light-icon {
      display: inline;
    }
    #dark-icon {
      display: none;
    }

    @media (prefers-color-scheme: dark) {
      #light-icon {
        display: none;
      }
      #dark-icon {
        display: inline;
      }
    }
  </style><g id="light-icon"><svg xmlns="http://www.w3.org/2000/svg" version="1.1" xmlns:xlink="http://www.w3.org/1999/xlink" width="1000" height="1000"><g><g transform="matrix(1.2376237623762376,0,0,1.2376237623762376,94.05940594059405,0)"><svg xmlns="http://www.w3.org/2000/svg" version="1.1" xmlns:xlink="http://www.w3.org/1999/xlink" width="656" height="808"><svg viewBox="0 0 656 808" fill="none" xmlns="http://www.w3.org/2000/svg">
<g filter="url(#filter0_d_93_285)">
<path fill-rule="evenodd" clip-rule="evenodd" d="M652 0H565.88L329.575 625.623H327.475L91.1702 0H4V789.965V808H576.382H652V789.965V0ZM81.718 169.68H79.6176L81.718 748.482H327.475H574.282L576.382 169.68H574.282L360.032 727.2H297.018L81.718 169.68Z" fill="black"></path>
</g>
<defs>
<filter id="filter0_d_93_285" x="0" y="0" width="656" height="816" filterUnits="userSpaceOnUse" color-interpolation-filters="sRGB">
<feFlood flood-opacity="0" result="BackgroundImageFix"></feFlood>
<feColorMatrix in="SourceAlpha" type="matrix" values="0 0 0 0 0 0 0 0 0 0 0 0 0 0 0 0 0 0 127 0" result="hardAlpha"></feColorMatrix>
<feOffset dy="4"></feOffset>
<feGaussianBlur stdDeviation="2"></feGaussianBlur>
<feComposite in2="hardAlpha" operator="out"></feComposite>
<feColorMatrix type="matrix" values="0 0 0 0 0 0 0 0 0 0 0 0 0 0 0 0 0 0 0.25 0"></feColorMatrix>
<feBlend mode="normal" in2="BackgroundImageFix" result="effect1_dropShadow_93_285"></feBlend>
<feBlend mode="normal" in="SourceGraphic" in2="effect1_dropShadow_93_285" result="shape"></feBlend>
</filter>
</defs>
</svg></svg></g></g></svg></g><g id="dark-icon"><svg xmlns="http://www.w3.org/2000/svg" version="1.1" xmlns:xlink="http://www.w3.org/1999/xlink" width="1000" height="1000"><g><g transform="matrix(1.2376237623762376,0,0,1.2376237623762376,94.05940594059405,0)"><svg xmlns="http://www.w3.org/2000/svg" version="1.1" xmlns:xlink="http://www.w3.org/1999/xlink" width="656" height="808"><svg viewBox="0 0 656 808" fill="none" xmlns="http://www.w3.org/2000/svg">
<g filter="url(#filter0_d_93_289)">
<path fill-rule="evenodd" clip-rule="evenodd" d="M652 0H565.88L329.575 625.623H327.475L91.1702 0H4V789.965V808H576.382H652V789.965V0ZM81.718 169.68H79.6176L81.718 748.482H327.475H574.282L576.382 169.68H574.282L360.032 727.2H297.018L81.718 169.68Z" fill="#E3E3E3"></path>
</g>
<defs>
<filter id="filter0_d_93_289" x="0" y="0" width="656" height="816" filterUnits="userSpaceOnUse" color-interpolation-filters="sRGB">
<feFlood flood-opacity="0" result="BackgroundImageFix"></feFlood>
<feColorMatrix in="SourceAlpha" type="matrix" values="0 0 0 0 0 0 0 0 0 0 0 0 0 0 0 0 0 0 127 0" result="hardAlpha"></feColorMatrix>
<feOffset dy="4"></feOffset>
<feGaussianBlur stdDeviation="2"></feGaussianBlur>
<feComposite in2="hardAlpha" operator="out"></feComposite>
<feColorMatrix type="matrix" values="0 0 0 0 0 0 0 0 0 0 0 0 0 0 0 0 0 0 0.25 0"></feColorMatrix>
<feBlend mode="normal" in2="BackgroundImageFix" result="effect1_dropShadow_93_289"></feBlend>
<feBlend mode="normal" in="SourceGraphic" in2="effect1_dropShadow_93_289" result="shape"></feBlend>
</filter>
</defs>
</svg></svg></g></g></svg></g></svg>