<svg viewBox="0 0 224 270" fill="none" xmlns="http://www.w3.org/2000/svg">
<path fill-rule="evenodd" clip-rule="evenodd" d="M206 17C206 14.7909 204.209 13 202 13H183.38C181.717 13 180.227 14.0296 179.639 15.5858L111.074 196.99C111.008 197.165 110.841 197.28 110.655 197.28C110.468 197.28 110.302 197.165 110.236 196.99L41.671 15.5858C41.0828 14.0296 39.5929 13 37.9294 13H19C16.7909 13 15 14.7909 15 17V247C15 249.209 16.7909 251 19 251H202C204.209 251 206 249.209 206 247V17ZM37.9982 63.2144C37.9436 63.0731 37.8078 62.98 37.6563 62.98C37.4534 62.98 37.2891 63.1449 37.2898 63.3478L37.8932 229.483C37.9012 231.687 39.6897 233.469 41.8931 233.469H179.107C181.31 233.469 183.099 231.687 183.107 229.483L183.71 63.3476C183.711 63.1448 183.547 62.98 183.344 62.98C183.192 62.98 183.056 63.0733 183.002 63.2148L120.928 224.636C120.334 226.181 118.849 227.2 117.194 227.2H104.11C102.458 227.2 100.975 226.183 100.379 224.642L37.9982 63.2144Z" fill="#F2F2F2"/>
<path d="M144 269H224M223 270V190M29 1.00952H1M1 0V26.0192M183.107 229.483L183.71 63.3476C183.711 63.1448 183.547 62.98 183.344 62.98C183.192 62.98 183.056 63.0733 183.002 63.2148L120.928 224.636C120.334 226.181 118.849 227.2 117.194 227.2H104.11C102.458 227.2 100.975 226.183 100.379 224.642L37.9982 63.2144C37.9436 63.0731 37.8078 62.98 37.6563 62.98C37.4534 62.98 37.2891 63.1449 37.2898 63.3478L37.8932 229.483C37.9012 231.687 39.6897 233.469 41.8931 233.469H179.107C181.31 233.469 183.099 231.687 183.107 229.483ZM202 251H19C16.7909 251 15 249.209 15 247V17C15 14.7909 16.7909 13 19 13H37.9294C39.5929 13 41.0828 14.0296 41.671 15.5858L110.236 196.99C110.302 197.165 110.468 197.28 110.655 197.28C110.841 197.28 111.008 197.165 111.074 196.99L179.639 15.5858C180.227 14.0296 181.717 13 183.38 13H202C204.209 13 206 14.7909 206 17V247C206 249.209 204.209 251 202 251Z" stroke="#F2F2F2" stroke-width="2"/>
</svg>
