<svg viewBox="0 0 360 267" fill="none" xmlns="http://www.w3.org/2000/svg">
<path d="M360 267H280V265H358V187H360V267Z" fill="#E3E3E3"/>
<path d="M320.166 85.1621C319.417 84.4179 318.404 84.0001 317.348 84H249.567C248.511 84 247.497 84.4178 246.748 85.1621L222.181 109.563C221.425 110.314 221 111.337 221 112.402V220.598C221 221.663 221.425 222.686 222.181 223.437L246.748 247.838C247.497 248.582 248.511 249 249.567 249H317.348C318.404 249 319.417 248.582 320.166 247.838L343.819 224.345C344.575 223.594 345 222.572 345 221.507V207.536C345 205.796 343.589 204.386 341.85 204.386H324.771C323.031 204.386 321.62 205.796 321.62 207.536V214.981L308.761 227.555H258.154L244.38 214.073V118.926L258.154 105.445H308.761L321.62 118.018V125.464C321.62 127.204 323.031 128.614 324.771 128.614H341.85C343.589 128.614 345 127.204 345 125.464V111.493C345 110.428 344.575 109.406 343.819 108.655L320.166 85.1621Z" fill="#E3E3E3"/>
<path fill-rule="evenodd" clip-rule="evenodd" d="M206 17C206 14.7909 204.209 13 202 13H183.38C181.717 13 180.227 14.0296 179.639 15.5858L111.074 196.99C111.008 197.165 110.841 197.28 110.655 197.28C110.468 197.28 110.302 197.165 110.236 196.99L41.671 15.5858C41.0828 14.0296 39.5929 13 37.9294 13H19C16.7909 13 15 14.7909 15 17V247C15 249.209 16.7909 251 19 251H202C204.209 251 206 249.209 206 247V17ZM37.9982 63.2144C37.9436 63.0731 37.8078 62.98 37.6563 62.98C37.4534 62.98 37.2891 63.1449 37.2898 63.3478L37.8932 229.483C37.9012 231.687 39.6897 233.469 41.8931 233.469H179.107C181.31 233.469 183.099 231.687 183.107 229.483L183.71 63.3476C183.711 63.1448 183.547 62.98 183.344 62.98C183.192 62.98 183.056 63.0733 183.002 63.2148L120.928 224.636C120.334 226.181 118.849 227.2 117.194 227.2H104.11C102.458 227.2 100.975 226.183 100.379 224.642L37.9982 63.2144Z" fill="#E3E3E3"/>
<path d="M2 0.00976562H29V2.00977H2V26.0195H0V0H2V0.00976562Z" fill="#E3E3E3"/>
<path d="M281.667 41.6758C281.515 41.9191 281.364 42.1623 281.212 42.4055C281.06 42.6487 280.908 42.8919 280.757 43.1352H283.64C282.325 44.9837 280.757 46.2971 278.935 47.0754C277.114 47.805 275.066 48.1699 272.789 48.1699H243.956C241.325 48.1699 240.01 49.8238 240.01 53.1316V54.8098H244.032V59.3337H237.203V61.3768C237.203 61.766 237.279 62.1065 237.43 62.3983H240.162C240.415 62.9334 240.87 63.201 241.528 63.201H284.247C285.36 63.201 285.916 63.8577 285.916 65.1711V66.9222H281.212V72.0299C281.212 73.3433 280.63 74 279.467 74H231.057C228.477 74 226.681 73.4163 225.669 72.2488C224.658 71.0327 224.101 69.2572 224 66.9222H228.856V62.3983H226.049V59.3337H227.414V54.8098H228.856V53.1316C228.856 49.0455 229.666 45.7133 231.284 43.1352H224.683L225.593 42.0407C225.796 41.8461 225.948 41.7245 226.049 41.6758H232.498C234.926 39.3409 238.417 38.1734 242.969 38.1734H274.535C277.064 38.1734 278.48 36.8844 278.784 34.3062H271.955C272.005 34.1116 272.031 33.7711 272.031 33.2847V29.7823H276.963V28.6148C276.963 27.2528 276.684 26.0853 276.128 25.1124C275.622 24.1396 274.56 23.6531 272.941 23.6531H238.644C237.936 23.6531 237.456 23.3856 237.203 22.8505H232.422C232.271 22.4613 232.195 22.0722 232.195 21.683V21.3182H235.002V16.7213H228.477V14.9701C228.477 13.6567 229.084 13 230.298 13H269.071C273.877 13 277.494 14.2404 279.922 16.7213H284.095C284.196 16.8186 284.247 16.8672 284.247 16.8672C285.309 18.2779 286.119 19.7616 286.675 21.3182H282.426C282.578 21.756 282.729 22.2667 282.881 22.8505H287.737C288.041 24.1639 288.193 25.5989 288.193 27.1555V29.7823H283.336V33.2847C283.336 33.4793 283.311 33.6495 283.26 33.7955C283.26 33.9414 283.26 34.1116 283.26 34.3062H291C290.949 37.1276 290.368 39.5841 289.255 41.6758H281.667ZM266.036 28.0311H255.869V27.0825H266.036V28.0311ZM257.766 35.3278H236.216V34.3792H257.766V35.3278ZM279.998 51.4534H269.754V50.4318H279.998V51.4534ZM253.744 52.6208H243.501V51.6723H253.744V52.6208ZM278.556 61.6687H257.083V60.7931H278.556V61.6687Z" fill="#E3E3E3"/>
<path d="M225.049 58.334H226.414V53.8096H227.856V53.1318C227.856 50.324 228.229 47.8183 228.994 45.6348H225.616L226.299 44.8154L226.864 44.1348H222.55L224.824 41.4014L224.86 41.3584L224.9 41.3203C225.098 41.1301 225.353 40.9006 225.615 40.7744L225.82 40.6758H232.106C233.644 39.2969 235.523 38.3393 237.717 37.7783V36.3281H235.217V33.3789H258.766V35.8789H260.266V37.1738H274.534L274.535 38.1734H242.969L242.128 38.1875C237.984 38.3244 234.775 39.4869 232.498 41.6758H226.049C225.948 41.7245 225.796 41.8461 225.593 42.0407L224.683 43.1352H231.284C229.666 45.7133 228.856 49.0455 228.856 53.1316V54.8098H227.414V59.3337H226.049V62.3983H228.856V66.9222H224C224.101 69.2572 224.658 71.0327 225.669 72.2488C226.618 73.3433 228.255 73.9247 230.582 73.9932L231.057 74H279.467L279.678 73.9922C280.632 73.9204 281.141 73.346 281.205 72.2686L281.212 72.0299V66.9222H285.916V65.1711C285.916 63.9399 285.427 63.286 284.449 63.209L284.247 63.201L284.247 62.2012C285.005 62.2012 285.741 62.4324 286.262 63.0469C286.672 63.5305 286.849 64.1413 286.898 64.7773C287.283 64.873 287.619 65.0627 287.88 65.3701C288.266 65.8257 288.416 66.4556 288.416 67.1709V69.4219H283.712V74.0303C283.712 74.75 283.553 75.383 283.149 75.8389C282.735 76.3063 282.142 76.5 281.467 76.5H233.057C230.426 76.5 228.445 75.9084 227.291 74.5762L227.285 74.5684C227.24 74.5142 227.197 74.4584 227.153 74.4023C226.253 74.0651 225.496 73.5753 224.914 72.9033L224.907 72.8965L224.9 72.8887C223.696 71.441 223.107 69.4193 223.001 66.9658L222.956 65.9219H227.856V64.8984H227.549V63.3984H225.049V58.334ZM279.556 59.793V62.2012H284.247L284.247 63.201H241.528L241.527 62.2012H256.083V59.793H279.556ZM257.083 60.7931V61.6687H278.556V60.7931H257.083ZM242.626 53.6211C242.615 53.6828 242.606 53.7456 242.597 53.8096H245.001V53.6211H242.626ZM272.254 52.9531H281.498V52.9316H272.254V52.9531ZM243.501 51.6723V52.6208H253.744V51.6723H243.501ZM228.172 44.1934C228.114 44.2397 228.041 44.3052 227.952 44.3906L227.749 44.6348H229.382C229.448 44.4802 229.515 44.3268 229.585 44.1758H228.195C228.188 44.1813 228.18 44.1868 228.172 44.1934ZM291.811 36.8066C291.542 38.7614 290.989 40.5448 290.138 42.1455L289.855 42.6758H285.194L284.839 43.1758H290.948C291.866 41.3495 292.383 39.2306 292.484 36.8066H291.811ZM271.03 33.2852V28.7822H275.963V28.6152C275.963 27.6674 275.811 26.8619 275.533 26.1787C275.349 26.162 275.152 26.1533 274.941 26.1533H267.036V28.583H268.536V30.5312H257.368V29.0312H254.868V26.1533H240.645C240.229 26.1533 239.843 26.075 239.51 25.8896C239.268 25.7553 239.071 25.5724 238.917 25.3506H234.081L233.957 25.0322C233.806 24.6438 233.718 24.2492 233.699 23.8506H231.739L231.491 23.2139C231.298 22.7175 231.194 22.2049 231.194 21.6826V20.3184H234.002V19.2217H229.977V17.7217H227.477V14.9697C227.477 14.1777 227.658 13.397 228.197 12.8135C228.751 12.215 229.516 12 230.298 12V13L230.077 13.0078C229.01 13.0848 228.477 13.7391 228.477 14.9701V16.7213H235.002V21.3182H232.195V21.683C232.195 21.9749 232.238 22.2667 232.323 22.5586L232.422 22.8505H237.203C237.424 23.3186 237.82 23.5821 238.39 23.6406L238.644 23.6531H272.941C274.56 23.6531 275.622 24.1396 276.128 25.1124C276.684 26.0853 276.963 27.2528 276.963 28.6148V29.7823H272.031V33.2847L272.025 33.6221C272.016 33.9322 271.993 34.1603 271.955 34.3062H278.784C278.49 36.8035 277.151 38.0918 274.769 38.1699L274.535 38.1734L274.534 37.1738C275.301 37.1738 275.882 37.0349 276.323 36.8066H273.308L273.471 36.1807C273.503 36.0564 273.529 35.7802 273.53 35.3066H270.661L270.987 34.0547C270.987 34.0545 270.988 34.0532 270.988 34.0508C270.989 34.048 270.989 34.0435 270.99 34.0381C270.992 34.0272 270.995 34.0119 270.998 33.9922C271.004 33.9522 271.01 33.8992 271.015 33.8311C271.025 33.6934 271.03 33.5129 271.03 33.2852ZM274.53 35.3066C274.53 35.4864 274.525 35.6538 274.517 35.8066H277.325C277.406 35.6567 277.481 35.4912 277.545 35.3066H274.53ZM236.216 34.3792V35.3278H257.766V34.3792H236.216ZM255.869 27.0825V28.0311H266.036V27.0825H255.869ZM239.664 24.6533C239.749 24.8246 239.859 24.9391 239.996 25.0156C240.144 25.0977 240.352 25.1533 240.645 25.1533H274.899C274.544 24.8598 273.949 24.6534 272.941 24.6533H239.664ZM234.703 23.8506C234.714 24.0158 234.741 24.1821 234.786 24.3506H237.314C237.299 24.3423 237.282 24.3349 237.267 24.3262C237.038 24.199 236.842 24.0377 236.676 23.8506H234.703ZM230.977 18.2217H234.002V17.7217H230.977V18.2217ZM269.071 12L269.071 13H230.298V12H269.071ZM286.916 67.9219H282.212V72.0303C282.212 72.8132 282.041 73.5874 281.524 74.1709C280.987 74.7776 280.236 75 279.467 75H231.057C230.512 75 229.99 74.9727 229.491 74.9209C230.382 75.2946 231.558 75.5 233.057 75.5H281.467C281.955 75.5 282.234 75.3649 282.401 75.1758C282.579 74.9751 282.712 74.6234 282.712 74.0303V68.4219H287.416V67.1709C287.416 66.573 287.288 66.2177 287.117 66.0166C287.063 65.9531 286.998 65.8962 286.916 65.8486V67.9219ZM245.031 60.334H238.203V61.377C238.203 61.3842 238.204 61.3913 238.204 61.3984H238.703V60.834H245.531V57.3096H245.031V60.334ZM241.01 53.8096H241.589C241.718 52.7781 242.013 51.9118 242.501 51.2373V50.6719H243.007C243.756 49.9915 244.758 49.6699 245.956 49.6699H268.754V49.4316H277.778C278.831 49.2558 279.818 48.9835 280.741 48.6143C282.198 47.9912 283.493 47.0025 284.625 45.6348H282.822C281.782 46.6517 280.619 47.4436 279.328 47.9951L279.318 47.999L279.308 48.0039C277.351 48.7879 275.173 49.1699 272.789 49.1699H243.956C242.864 49.1699 242.201 49.5016 241.779 50.0322C241.322 50.6068 241.01 51.5837 241.01 53.1318V53.8096ZM269.754 50.4318V51.4534H279.998V50.4318H269.754ZM280.998 51.9316H282.498V53.9531H271.254V52.4531H268.754V50.6699H245.956C245.919 50.6699 245.882 50.6712 245.846 50.6719H254.744V53.1719H256.244V55.1211H245.031V56.3096H246.531V61.834H241.002L241.066 61.9707C241.118 62.0795 241.166 62.1177 241.2 62.1377C241.241 62.1615 241.334 62.2011 241.527 62.2012L241.528 63.201L241.291 63.1885C240.76 63.13 240.383 62.8665 240.162 62.3983H237.43L237.377 62.2861C237.294 62.0961 237.24 61.8872 237.217 61.6592L237.203 61.3768V59.3337H244.032V54.8098H240.01V53.1316C240.01 49.9272 241.244 48.275 243.713 48.1748L243.956 48.1699H272.789L273.214 48.166C275.181 48.1261 276.973 47.8066 278.592 47.208L278.935 47.0754C280.757 46.2971 282.325 44.9837 283.64 43.1352H280.757L281.667 41.6758H289.255L289.457 41.2793C290.438 39.2757 290.953 36.9511 291 34.3062H283.26V33.7955C283.298 33.6859 283.323 33.5627 283.332 33.4258L283.336 33.2847V29.7823H288.193V27.1555C288.193 25.5989 288.041 24.1639 287.737 22.8505H282.881L282.653 22.0293C282.577 21.7741 282.502 21.5369 282.426 21.3182H286.675C286.188 19.9562 285.508 18.6497 284.634 17.3994L284.247 16.8672C284.247 16.8672 284.196 16.8186 284.095 16.7213H279.922C277.494 14.2404 273.877 13 269.071 13L269.071 12C273.854 12 277.662 13.191 280.33 15.7217H284.498L284.788 16.001C284.839 16.0496 284.877 16.0861 284.902 16.1104C284.915 16.1224 284.924 16.1317 284.931 16.1377C284.934 16.1406 284.936 16.1431 284.938 16.1445L284.939 16.1455L284.94 16.1465L284.998 16.2021L285.046 16.2656C285.545 16.9279 285.989 17.6091 286.384 18.3057L286.441 18.3613C286.492 18.4099 286.53 18.4464 286.556 18.4707C286.568 18.4827 286.578 18.492 286.584 18.498C286.587 18.501 286.589 18.5034 286.591 18.5049L286.593 18.5059L286.594 18.5068L286.622 18.5342L286.646 18.5664C287.737 20.0145 288.571 21.5424 289.146 23.1494L289.385 23.8184H288.941C288.969 23.9942 288.995 24.1715 289.019 24.3506H290.135L290.225 24.7383C290.538 26.0936 290.692 27.5667 290.692 29.1553V32.2822H285.836V33.3066H292.019L292 34.3242C291.991 34.8281 291.965 35.3223 291.923 35.8066H293.509L293.5 36.3154C293.448 39.2006 292.853 41.7378 291.696 43.9111L291.555 44.1758H284.112C283.992 44.3326 283.869 44.4854 283.744 44.6348H286.609L286.047 45.4248C284.686 47.3371 283.049 48.7157 281.132 49.5352L281.121 49.54C281.08 49.5564 281.039 49.57 280.998 49.5859V51.9316ZM289.192 30.7822H284.336V33.2852C284.336 33.2923 284.335 33.2995 284.335 33.3066H284.836V31.2822H289.692V29.1553C289.692 27.7842 289.571 26.5167 289.333 25.3506H289.123C289.169 25.9361 289.192 26.5377 289.192 27.1553V30.7822Z" fill="#FFC5D3"/>
</svg>
