<svg viewBox="0 0 360 267" fill="none" xmlns="http://www.w3.org/2000/svg">
<mask id="path-1-outside-1_103_389" maskUnits="userSpaceOnUse" x="-0.5" y="0" width="361" height="267" fill="black">
<rect fill="white" x="-0.5" width="361" height="267"/>
<path d="M224.295 220.308C224.106 220.12 224 219.864 224 219.598V111.402C224 111.136 224.106 110.88 224.295 110.692L248.863 86.2905C249.05 86.1044 249.303 86 249.567 86H317.347C317.611 86 317.865 86.1044 318.052 86.2905L341.705 109.784C341.894 109.972 342 110.227 342 110.493V124.464C342 124.547 341.933 124.614 341.85 124.614H324.77C324.687 124.614 324.62 124.547 324.62 124.464V116.177C324.62 115.907 324.512 115.65 324.319 115.462L310.276 101.731C310.089 101.548 309.838 101.446 309.577 101.446H257.338C257.077 101.446 256.826 101.548 256.639 101.731L241.68 116.37C241.488 116.558 241.38 116.816 241.38 117.085V213.915C241.38 214.184 241.488 214.442 241.68 214.63L256.639 229.269C256.826 229.452 257.077 229.554 257.338 229.554H309.577C309.838 229.554 310.089 229.452 310.276 229.269L324.319 215.538C324.512 215.35 324.62 215.093 324.62 214.823V206.536C324.62 206.453 324.687 206.386 324.77 206.386H341.85C341.933 206.386 342 206.453 342 206.536V220.507C342 220.773 341.894 221.028 341.705 221.216L318.052 244.709C317.865 244.896 317.612 245 317.347 245H249.567C249.303 245 249.05 244.896 248.863 244.709L224.295 220.308Z"/>
<path fill-rule="evenodd" clip-rule="evenodd" d="M206 17C206 14.7909 204.209 13 202 13H183.38C181.717 13 180.227 14.0296 179.639 15.5858L111.074 196.99C111.008 197.165 110.841 197.28 110.655 197.28C110.468 197.28 110.302 197.165 110.236 196.99L41.671 15.5858C41.0828 14.0296 39.5929 13 37.9294 13H19C16.7909 13 15 14.7909 15 17V247C15 249.209 16.7909 251 19 251H202C204.209 251 206 249.209 206 247V17ZM37.9982 63.2144C37.9436 63.0731 37.8078 62.98 37.6563 62.98C37.4534 62.98 37.2891 63.1449 37.2898 63.3478L37.8932 229.483C37.9012 231.687 39.6897 233.469 41.8931 233.469H179.107C181.31 233.469 183.099 231.687 183.107 229.483L183.71 63.3476C183.711 63.1448 183.547 62.98 183.344 62.98C183.192 62.98 183.056 63.0733 183.002 63.2148L120.928 224.636C120.334 226.181 118.849 227.2 117.194 227.2H104.11C102.458 227.2 100.975 226.183 100.379 224.642L37.9982 63.2144Z"/>
<path d="M278.667 41.6758C278.515 41.9191 278.364 42.1623 278.212 42.4055C278.06 42.6487 277.908 42.8919 277.757 43.1352H280.64C279.325 44.9837 277.757 46.2971 275.935 47.0754C274.114 47.805 272.066 48.1699 269.789 48.1699H240.956C238.325 48.1699 237.01 49.8238 237.01 53.1316V54.8098H241.032V59.3337H234.203V61.3768C234.203 61.766 234.279 62.1065 234.43 62.3983H237.162C237.415 62.9334 237.87 63.201 238.528 63.201H281.247C282.36 63.201 282.916 63.8577 282.916 65.1711V66.9222H278.212V72.0299C278.212 73.3433 277.63 74 276.467 74H228.057C225.477 74 223.681 73.4163 222.669 72.2488C221.658 71.0327 221.101 69.2572 221 66.9222H225.856V62.3983H223.049V59.3337H224.414V54.8098H225.856V53.1316C225.856 49.0455 226.666 45.7133 228.284 43.1352H221.683L222.593 42.0407C222.796 41.8461 222.948 41.7245 223.049 41.6758H229.498C231.926 39.3409 235.417 38.1734 239.969 38.1734H271.535C274.064 38.1734 275.48 36.8844 275.784 34.3062H268.955C269.005 34.1116 269.031 33.7711 269.031 33.2847V29.7823H273.963V28.6148C273.963 27.2528 273.684 26.0853 273.128 25.1124C272.622 24.1396 271.56 23.6531 269.941 23.6531H235.644C234.936 23.6531 234.456 23.3856 234.203 22.8505H229.422C229.271 22.4613 229.195 22.0722 229.195 21.683V21.3182H232.002V16.7213H225.477V14.9701C225.477 13.6567 226.084 13 227.298 13H266.071C270.877 13 274.494 14.2404 276.922 16.7213H281.095C281.196 16.8186 281.247 16.8672 281.247 16.8672C282.309 18.2779 283.119 19.7616 283.675 21.3182H279.426C279.578 21.756 279.729 22.2667 279.881 22.8505H284.737C285.041 24.1639 285.193 25.5989 285.193 27.1555V29.7823H280.336V33.2847C280.336 33.4793 280.311 33.6495 280.26 33.7955C280.26 33.9414 280.26 34.1116 280.26 34.3062H288C287.949 37.1276 287.368 39.5841 286.255 41.6758H278.667ZM263.036 28.0311H252.869V27.0825H263.036V28.0311ZM254.766 35.3278H233.216V34.3792H254.766V35.3278ZM276.998 51.4534H266.754V50.4318H276.998V51.4534ZM250.744 52.6208H240.501V51.6723H250.744V52.6208ZM275.556 61.6687H254.083V60.7931H275.556V61.6687Z"/>
</mask>
<path d="M224.295 220.308C224.106 220.12 224 219.864 224 219.598V111.402C224 111.136 224.106 110.88 224.295 110.692L248.863 86.2905C249.05 86.1044 249.303 86 249.567 86H317.347C317.611 86 317.865 86.1044 318.052 86.2905L341.705 109.784C341.894 109.972 342 110.227 342 110.493V124.464C342 124.547 341.933 124.614 341.85 124.614H324.77C324.687 124.614 324.62 124.547 324.62 124.464V116.177C324.62 115.907 324.512 115.65 324.319 115.462L310.276 101.731C310.089 101.548 309.838 101.446 309.577 101.446H257.338C257.077 101.446 256.826 101.548 256.639 101.731L241.68 116.37C241.488 116.558 241.38 116.816 241.38 117.085V213.915C241.38 214.184 241.488 214.442 241.68 214.63L256.639 229.269C256.826 229.452 257.077 229.554 257.338 229.554H309.577C309.838 229.554 310.089 229.452 310.276 229.269L324.319 215.538C324.512 215.35 324.62 215.093 324.62 214.823V206.536C324.62 206.453 324.687 206.386 324.77 206.386H341.85C341.933 206.386 342 206.453 342 206.536V220.507C342 220.773 341.894 221.028 341.705 221.216L318.052 244.709C317.865 244.896 317.612 245 317.347 245H249.567C249.303 245 249.05 244.896 248.863 244.709L224.295 220.308Z" fill="#CCCCCC"/>
<path fill-rule="evenodd" clip-rule="evenodd" d="M206 17C206 14.7909 204.209 13 202 13H183.38C181.717 13 180.227 14.0296 179.639 15.5858L111.074 196.99C111.008 197.165 110.841 197.28 110.655 197.28C110.468 197.28 110.302 197.165 110.236 196.99L41.671 15.5858C41.0828 14.0296 39.5929 13 37.9294 13H19C16.7909 13 15 14.7909 15 17V247C15 249.209 16.7909 251 19 251H202C204.209 251 206 249.209 206 247V17ZM37.9982 63.2144C37.9436 63.0731 37.8078 62.98 37.6563 62.98C37.4534 62.98 37.2891 63.1449 37.2898 63.3478L37.8932 229.483C37.9012 231.687 39.6897 233.469 41.8931 233.469H179.107C181.31 233.469 183.099 231.687 183.107 229.483L183.71 63.3476C183.711 63.1448 183.547 62.98 183.344 62.98C183.192 62.98 183.056 63.0733 183.002 63.2148L120.928 224.636C120.334 226.181 118.849 227.2 117.194 227.2H104.11C102.458 227.2 100.975 226.183 100.379 224.642L37.9982 63.2144Z" fill="#CCCCCC"/>
<path d="M278.667 41.6758C278.515 41.9191 278.364 42.1623 278.212 42.4055C278.06 42.6487 277.908 42.8919 277.757 43.1352H280.64C279.325 44.9837 277.757 46.2971 275.935 47.0754C274.114 47.805 272.066 48.1699 269.789 48.1699H240.956C238.325 48.1699 237.01 49.8238 237.01 53.1316V54.8098H241.032V59.3337H234.203V61.3768C234.203 61.766 234.279 62.1065 234.43 62.3983H237.162C237.415 62.9334 237.87 63.201 238.528 63.201H281.247C282.36 63.201 282.916 63.8577 282.916 65.1711V66.9222H278.212V72.0299C278.212 73.3433 277.63 74 276.467 74H228.057C225.477 74 223.681 73.4163 222.669 72.2488C221.658 71.0327 221.101 69.2572 221 66.9222H225.856V62.3983H223.049V59.3337H224.414V54.8098H225.856V53.1316C225.856 49.0455 226.666 45.7133 228.284 43.1352H221.683L222.593 42.0407C222.796 41.8461 222.948 41.7245 223.049 41.6758H229.498C231.926 39.3409 235.417 38.1734 239.969 38.1734H271.535C274.064 38.1734 275.48 36.8844 275.784 34.3062H268.955C269.005 34.1116 269.031 33.7711 269.031 33.2847V29.7823H273.963V28.6148C273.963 27.2528 273.684 26.0853 273.128 25.1124C272.622 24.1396 271.56 23.6531 269.941 23.6531H235.644C234.936 23.6531 234.456 23.3856 234.203 22.8505H229.422C229.271 22.4613 229.195 22.0722 229.195 21.683V21.3182H232.002V16.7213H225.477V14.9701C225.477 13.6567 226.084 13 227.298 13H266.071C270.877 13 274.494 14.2404 276.922 16.7213H281.095C281.196 16.8186 281.247 16.8672 281.247 16.8672C282.309 18.2779 283.119 19.7616 283.675 21.3182H279.426C279.578 21.756 279.729 22.2667 279.881 22.8505H284.737C285.041 24.1639 285.193 25.5989 285.193 27.1555V29.7823H280.336V33.2847C280.336 33.4793 280.311 33.6495 280.26 33.7955C280.26 33.9414 280.26 34.1116 280.26 34.3062H288C287.949 37.1276 287.368 39.5841 286.255 41.6758H278.667ZM263.036 28.0311H252.869V27.0825H263.036V28.0311ZM254.766 35.3278H233.216V34.3792H254.766V35.3278ZM276.998 51.4534H266.754V50.4318H276.998V51.4534ZM250.744 52.6208H240.501V51.6723H250.744V52.6208ZM275.556 61.6687H254.083V60.7931H275.556V61.6687Z" fill="#CCCCCC"/>
<path d="M280 266.5V267H360V266.5V266H280V266.5ZM359.5 267H360V187H359.5H359V267H359.5ZM29 0.509521V0.00952148H1V0.509521V1.00952H29V0.509521ZM0.5 0H0V26.0192H0.5H1V0H0.5ZM248.863 244.709L249.567 244L249.567 244L248.863 244.709ZM318.052 244.709L318.757 245.419L318.757 245.419L318.052 244.709ZM341.705 221.216L341 220.507L341 220.507L341.705 221.216ZM324.319 215.538L325.018 216.253L325.018 216.253L324.319 215.538ZM310.276 229.269L309.577 228.554L309.577 228.554L310.276 229.269ZM256.639 229.269L257.338 228.554L257.338 228.554L256.639 229.269ZM241.68 214.63L240.981 215.345L240.981 215.345L241.68 214.63ZM241.68 116.37L240.981 115.655L240.981 115.655L241.68 116.37ZM256.639 101.731L257.338 102.446L257.338 102.446L256.639 101.731ZM310.276 101.731L310.975 101.016L310.276 101.731ZM324.319 115.462L323.62 116.177L324.319 115.462ZM341.705 109.784L341 110.493L341 110.493L341.705 109.784ZM318.052 86.2905L318.757 85.581L318.757 85.581L318.052 86.2905ZM248.863 86.2905L248.158 85.581L248.158 85.581L248.863 86.2905ZM224.295 110.692L225 111.402L225 111.402L224.295 110.692ZM224.295 220.308L223.591 221.017L223.591 221.017L224.295 220.308ZM183.107 229.483L184.107 229.487L183.107 229.483ZM37.8932 229.483L38.8931 229.48L37.8932 229.483ZM183.71 63.3476L182.71 63.3439L183.71 63.3476ZM183.002 63.2148L183.935 63.5737L183.002 63.2148ZM120.928 224.636L121.861 224.995L120.928 224.636ZM100.379 224.642L99.4466 225.002L100.379 224.642ZM37.9982 63.2144L38.931 62.8539L38.931 62.8539L37.9982 63.2144ZM37.2898 63.3478L36.2899 63.3515L37.2898 63.3478ZM41.671 15.5858L40.7356 15.9393L41.671 15.5858ZM110.236 196.99L111.171 196.637L110.236 196.99ZM111.074 196.99L110.138 196.637L111.074 196.99ZM179.639 15.5858L178.703 15.2322L179.639 15.5858ZM278.667 41.6758V40.6758H278.112L277.819 41.1465L278.667 41.6758ZM278.212 42.4055L279.06 42.9349L279.06 42.9348L278.212 42.4055ZM277.757 43.1352L276.908 42.6058L275.954 44.1352H277.757V43.1352ZM280.64 43.1352L281.455 43.7149L282.579 42.1352H280.64V43.1352ZM275.935 47.0754L276.307 48.0036L276.318 47.9994L276.328 47.9949L275.935 47.0754ZM237.01 54.8098H236.01V55.8098H237.01V54.8098ZM241.032 54.8098H242.032V53.8098H241.032V54.8098ZM241.032 59.3337V60.3337H242.032V59.3337H241.032ZM234.203 59.3337V58.3337H233.203V59.3337H234.203ZM234.43 62.3983L233.543 62.8596L233.823 63.3983H234.43V62.3983ZM237.162 62.3983L238.066 61.971L237.795 61.3983H237.162V62.3983ZM282.916 66.9222V67.9222H283.916V66.9222H282.916ZM278.212 66.9222V65.9222H277.212V66.9222H278.212ZM222.669 72.2488L221.901 72.8883L221.907 72.8961L221.914 72.9037L222.669 72.2488ZM221 66.9222V65.9222H219.956L220.001 66.9655L221 66.9222ZM225.856 66.9222V67.9222H226.856V66.9222H225.856ZM225.856 62.3983H226.856V61.3983H225.856V62.3983ZM223.049 62.3983H222.049V63.3983H223.049V62.3983ZM223.049 59.3337V58.3337H222.049V59.3337H223.049ZM224.414 59.3337V60.3337H225.414V59.3337H224.414ZM224.414 54.8098V53.8098H223.414V54.8098H224.414ZM225.856 54.8098V55.8098H226.856V54.8098H225.856ZM228.284 43.1352L229.131 43.6669L230.093 42.1352H228.284V43.1352ZM221.683 43.1352L220.914 42.4956L219.55 44.1352H221.683V43.1352ZM222.593 42.0407L221.9 41.3199L221.86 41.3584L221.825 41.4011L222.593 42.0407ZM223.049 41.6758V40.6758H222.821L222.615 40.7746L223.049 41.6758ZM229.498 41.6758V42.6758H229.901L230.191 42.3966L229.498 41.6758ZM275.784 34.3062L276.777 34.4231L276.908 33.3062H275.784V34.3062ZM268.955 34.3062L267.987 34.0546L267.661 35.3062H268.955V34.3062ZM269.031 29.7823V28.7823H268.031V29.7823H269.031ZM273.963 29.7823V30.7823H274.963V29.7823H273.963ZM273.128 25.1124L272.241 25.5738L272.25 25.5915L272.26 25.6089L273.128 25.1124ZM234.203 22.8505L235.107 22.4231L234.836 21.8505H234.203V22.8505ZM229.422 22.8505L228.491 23.2138L228.739 23.8505H229.422V22.8505ZM229.195 21.3182V20.3182H228.195V21.3182H229.195ZM232.002 21.3182V22.3182H233.002V21.3182H232.002ZM232.002 16.7213H233.002V15.7213H232.002V16.7213ZM225.477 16.7213H224.477V17.7213H225.477V16.7213ZM276.922 16.7213L276.207 17.4208L276.501 17.7213H276.922V16.7213ZM281.095 16.7213L281.788 16.0005L281.498 15.7213H281.095V16.7213ZM281.247 16.8672L282.046 16.2657L281.998 16.2018L281.94 16.1464L281.247 16.8672ZM283.675 21.3182V22.3182H285.094L284.617 20.9816L283.675 21.3182ZM279.426 21.3182V20.3182H278.021L278.481 21.6457L279.426 21.3182ZM279.881 22.8505L278.913 23.1021L279.108 23.8505H279.881V22.8505ZM284.737 22.8505L285.712 22.6253L285.533 21.8505H284.737V22.8505ZM285.193 29.7823V30.7823H286.193V29.7823H285.193ZM280.336 29.7823V28.7823H279.336V29.7823H280.336ZM280.26 33.7955L279.316 33.4679L279.26 33.6271V33.7955H280.26ZM280.26 34.3062H279.26V35.3062H280.26V34.3062ZM288 34.3062L289 34.3241L289.018 33.3062H288V34.3062ZM286.255 41.6758V42.6758H286.856L287.138 42.1455L286.255 41.6758ZM263.036 28.0311V29.0311H264.036V28.0311H263.036ZM252.869 28.0311H251.869V29.0311H252.869V28.0311ZM252.869 27.0825V26.0825H251.869V27.0825H252.869ZM263.036 27.0825H264.036V26.0825H263.036V27.0825ZM254.766 35.3278V36.3278H255.766V35.3278H254.766ZM233.216 35.3278H232.216V36.3278H233.216V35.3278ZM233.216 34.3792V33.3792H232.216V34.3792H233.216ZM254.766 34.3792H255.766V33.3792H254.766V34.3792ZM276.998 51.4534V52.4534H277.998V51.4534H276.998ZM266.754 51.4534H265.754V52.4534H266.754V51.4534ZM266.754 50.4318V49.4318H265.754V50.4318H266.754ZM276.998 50.4318H277.998V49.4318H276.998V50.4318ZM250.744 52.6208V53.6208H251.744V52.6208H250.744ZM240.501 52.6208H239.501V53.6208H240.501V52.6208ZM240.501 51.6723V50.6723H239.501V51.6723H240.501ZM250.744 51.6723H251.744V50.6723H250.744V51.6723ZM275.556 61.6687V62.6687H276.556V61.6687H275.556ZM254.083 61.6687H253.083V62.6687H254.083V61.6687ZM254.083 60.7931V59.7931H253.083V60.7931H254.083ZM275.556 60.7931H276.556V59.7931H275.556V60.7931ZM224 219.598H225V111.402H224H223V219.598H224ZM224.295 110.692L225 111.402L249.567 87L248.863 86.2905L248.158 85.581L223.591 109.983L224.295 110.692ZM249.567 86V87H317.347V86V85H249.567V86ZM318.052 86.2905L317.347 87L341 110.493L341.705 109.784L342.409 109.074L318.757 85.581L318.052 86.2905ZM342 110.493H341V124.464H342H343V110.493H342ZM341.85 124.614V123.614H324.77V124.614V125.614H341.85V124.614ZM324.62 124.464H325.62V116.177H324.62H323.62V124.464H324.62ZM324.319 115.462L325.018 114.747L310.975 101.016L310.276 101.731L309.577 102.446L323.62 116.177L324.319 115.462ZM309.577 101.446V100.446H257.338V101.446V102.446H309.577V101.446ZM256.639 101.731L255.939 101.016L240.981 115.655L241.68 116.37L242.38 117.085L257.338 102.446L256.639 101.731ZM241.38 117.085H240.38V213.915H241.38H242.38V117.085H241.38ZM241.68 214.63L240.981 215.345L255.939 229.984L256.639 229.269L257.338 228.554L242.38 213.915L241.68 214.63ZM257.338 229.554V230.554H309.577V229.554V228.554H257.338V229.554ZM310.276 229.269L310.975 229.984L325.018 216.253L324.319 215.538L323.62 214.823L309.577 228.554L310.276 229.269ZM324.62 214.823H325.62V206.536H324.62H323.62V214.823H324.62ZM324.77 206.386V207.386H341.85V206.386V205.386H324.77V206.386ZM342 206.536H341V220.507H342H343V206.536H342ZM341.705 221.216L341 220.507L317.347 244L318.052 244.709L318.757 245.419L342.409 221.926L341.705 221.216ZM317.347 245V244H249.567V245V246H317.347V245ZM248.863 244.709L249.567 244L225 219.598L224.295 220.308L223.591 221.017L248.158 245.419L248.863 244.709ZM249.567 245V244L249.567 244L248.863 244.709L248.158 245.419C248.533 245.791 249.039 246 249.567 246V245ZM318.052 244.709L317.347 244L317.347 244V245V246C317.876 246 318.382 245.791 318.757 245.419L318.052 244.709ZM342 220.507H341L341 220.507L341.705 221.216L342.409 221.926C342.787 221.55 343 221.039 343 220.507H342ZM341.85 206.386V207.386C341.381 207.386 341 207.005 341 206.536H342H343C343 205.901 342.485 205.386 341.85 205.386V206.386ZM324.62 206.536H325.62C325.62 207.005 325.24 207.386 324.77 207.386V206.386V205.386C324.135 205.386 323.62 205.901 323.62 206.536H324.62ZM324.319 215.538L325.018 216.253C325.403 215.877 325.62 215.362 325.62 214.823H324.62H323.62L323.62 214.823L324.319 215.538ZM309.577 229.554V230.554C310.1 230.554 310.601 230.35 310.975 229.984L310.276 229.269L309.577 228.554L309.577 228.554V229.554ZM256.639 229.269L255.939 229.984C256.313 230.349 256.815 230.554 257.338 230.554V229.554V228.554L257.338 228.554L256.639 229.269ZM241.38 213.915H240.38C240.38 214.453 240.597 214.968 240.981 215.345L241.68 214.63L242.38 213.915L242.38 213.915H241.38ZM241.68 116.37L240.981 115.655C240.597 116.032 240.38 116.547 240.38 117.085H241.38H242.38L242.38 117.085L241.68 116.37ZM257.338 101.446V100.446C256.815 100.446 256.313 100.651 255.939 101.016L256.639 101.731L257.338 102.446L257.338 102.446V101.446ZM310.276 101.731L310.975 101.016C310.601 100.65 310.099 100.446 309.577 100.446V101.446V102.446L309.577 102.446L310.276 101.731ZM324.62 116.177H325.62C325.62 115.638 325.403 115.123 325.018 114.747L324.319 115.462L323.62 116.177L323.62 116.177H324.62ZM324.77 124.614V123.614C325.24 123.614 325.62 123.995 325.62 124.464H324.62H323.62C323.62 125.099 324.135 125.614 324.77 125.614V124.614ZM342 124.464H341C341 123.995 341.38 123.614 341.85 123.614V124.614V125.614C342.485 125.614 343 125.099 343 124.464H342ZM341.705 109.784L341 110.493L341 110.493H342H343C343 109.961 342.787 109.45 342.409 109.074L341.705 109.784ZM317.347 86V87L317.347 87L318.052 86.2905L318.757 85.581C318.382 85.2089 317.876 85 317.347 85V86ZM248.863 86.2905L249.567 87L249.567 87V86V85C249.039 85 248.533 85.2089 248.158 85.581L248.863 86.2905ZM224 111.402H225L225 111.402L224.295 110.692L223.591 109.983C223.213 110.358 223 110.869 223 111.402H224ZM224 219.598H223C223 220.131 223.213 220.642 223.591 221.017L224.295 220.308L225 219.598L225 219.598H224ZM202 13V12H183.38V13V14H202V13ZM179.639 15.5858L178.703 15.2322L110.138 196.637L111.074 196.99L112.009 197.344L180.574 15.9393L179.639 15.5858ZM110.236 196.99L111.171 196.637L42.6064 15.2322L41.671 15.5858L40.7356 15.9393L109.3 197.344L110.236 196.99ZM37.9294 13V12H19V13V14H37.9294V13ZM37.9982 63.2144L37.0654 63.5748L99.4466 225.002L100.379 224.642L101.312 224.281L38.931 62.8539L37.9982 63.2144ZM104.11 227.2V228.2H117.194V227.2V226.2H104.11V227.2ZM120.928 224.636L121.861 224.995L183.935 63.5737L183.002 63.2148L182.069 62.8559L119.994 224.277L120.928 224.636ZM37.8932 229.483L38.8931 229.48L38.2898 63.3442L37.2898 63.3478L36.2899 63.3515L36.8932 229.487L37.8932 229.483ZM183.71 63.3476L182.71 63.3439L182.107 229.48L183.107 229.483L184.107 229.487L184.71 63.3512L183.71 63.3476ZM183.107 229.483L182.107 229.48C182.101 231.132 180.759 232.469 179.107 232.469V233.469V234.469C181.861 234.469 184.097 232.241 184.107 229.487L183.107 229.483ZM37.8932 229.483L36.8932 229.487C36.9032 232.241 39.1388 234.469 41.8931 234.469V233.469V232.469C40.2405 232.469 38.8991 231.132 38.8931 229.48L37.8932 229.483ZM202 251V252C204.761 252 207 249.761 207 247H206H205C205 248.657 203.657 250 202 250V251ZM183.344 62.98V63.98C182.993 63.98 182.709 63.6949 182.71 63.3439L183.71 63.3476L184.71 63.3512C184.713 62.5947 184.1 61.98 183.344 61.98V62.98ZM183.002 63.2148L183.935 63.5737C183.841 63.8185 183.606 63.98 183.344 63.98V62.98V61.98C182.779 61.98 182.272 62.3282 182.069 62.8559L183.002 63.2148ZM117.194 227.2V228.2C119.263 228.2 121.119 226.926 121.861 224.995L120.928 224.636L119.994 224.277C119.549 225.435 118.436 226.2 117.194 226.2V227.2ZM100.379 224.642L99.4466 225.002C100.191 226.929 102.044 228.2 104.11 228.2V227.2V226.2C102.871 226.2 101.759 225.438 101.312 224.281L100.379 224.642ZM37.6563 62.98V63.98C37.3946 63.98 37.1598 63.819 37.0654 63.5748L37.9982 63.2144L38.931 62.8539C38.7275 62.3273 38.221 61.98 37.6563 61.98V62.98ZM37.6563 62.98V61.98C36.8997 61.98 36.2871 62.5949 36.2899 63.3515L37.2898 63.3478L38.2898 63.3442C38.2911 63.695 38.0071 63.98 37.6563 63.98V62.98ZM15 247H14C14 249.761 16.2386 252 19 252V251V250C17.3431 250 16 248.657 16 247H15ZM19 13V12C16.2386 12 14 14.2386 14 17H15H16C16 15.3431 17.3431 14 19 14V13ZM41.671 15.5858L42.6064 15.2322C41.8712 13.2871 40.0088 12 37.9294 12V13V14C39.177 14 40.2945 14.7722 40.7356 15.9393L41.671 15.5858ZM110.655 197.28V196.28C110.884 196.28 111.09 196.422 111.171 196.637L110.236 196.99L109.3 197.344C109.513 197.907 110.053 198.28 110.655 198.28V197.28ZM111.074 196.99L110.138 196.637C110.22 196.422 110.425 196.28 110.655 196.28V197.28V198.28C111.257 198.28 111.796 197.907 112.009 197.344L111.074 196.99ZM183.38 13V12C181.301 12 179.438 13.2871 178.703 15.2322L179.639 15.5858L180.574 15.9393C181.015 14.7722 182.133 14 183.38 14V13ZM202 13V14C203.657 14 205 15.3432 205 17H206H207C207 14.2386 204.761 12 202 12V13ZM278.667 41.6758L277.819 41.1465C277.667 41.3897 277.515 41.6329 277.363 41.8762L278.212 42.4055L279.06 42.9348C279.212 42.6916 279.364 42.4484 279.515 42.2052L278.667 41.6758ZM278.212 42.4055L277.363 41.8761C277.212 42.119 277.06 42.3629 276.908 42.6058L277.757 43.1352L278.605 43.6645C278.757 43.421 278.908 43.1785 279.06 42.9349L278.212 42.4055ZM277.757 43.1352V44.1352H280.64V43.1352V42.1352H277.757V43.1352ZM280.64 43.1352L279.825 42.5554C278.601 44.2763 277.171 45.4599 275.542 46.1558L275.935 47.0754L276.328 47.9949C278.342 47.1342 280.049 45.691 281.455 43.7149L280.64 43.1352ZM275.935 47.0754L275.564 46.1471C273.878 46.8224 271.958 47.1699 269.789 47.1699V48.1699V49.1699C272.173 49.1699 274.351 48.7876 276.307 48.0036L275.935 47.0754ZM269.789 48.1699V47.1699H240.956V48.1699V49.1699H269.789V48.1699ZM240.956 48.1699V47.1699C239.418 47.1699 238.107 47.6648 237.214 48.7879C236.356 49.8673 236.01 51.3719 236.01 53.1316H237.01H238.01C238.01 51.5835 238.322 50.6072 238.779 50.0327C239.201 49.5019 239.863 49.1699 240.956 49.1699V48.1699ZM237.01 53.1316H236.01V54.8098H237.01H238.01V53.1316H237.01ZM237.01 54.8098V55.8098H241.032V54.8098V53.8098H237.01V54.8098ZM241.032 54.8098H240.032V59.3337H241.032H242.032V54.8098H241.032ZM241.032 59.3337V58.3337H234.203V59.3337V60.3337H241.032V59.3337ZM234.203 59.3337H233.203V61.3768H234.203H235.203V59.3337H234.203ZM234.203 61.3768H233.203C233.203 61.8973 233.305 62.4014 233.543 62.8596L234.43 62.3983L235.318 61.937C235.252 61.8115 235.203 61.6346 235.203 61.3768H234.203ZM234.43 62.3983V63.3983H237.162V62.3983V61.3983H234.43V62.3983ZM237.162 62.3983L236.258 62.8257C236.459 63.252 236.765 63.6149 237.186 63.8624C237.601 64.1061 238.064 64.201 238.528 64.201V63.201V62.201C238.334 62.201 238.24 62.162 238.2 62.1382C238.166 62.1182 238.117 62.0797 238.066 61.971L237.162 62.3983ZM238.528 63.201V64.201H281.247V63.201V62.201H238.528V63.201ZM281.247 63.201V64.201C281.602 64.201 281.7 64.2979 281.736 64.3399C281.798 64.4138 281.916 64.6318 281.916 65.1711H282.916H283.916C283.916 64.3969 283.756 63.6299 283.262 63.047C282.741 62.4324 282.005 62.201 281.247 62.201V63.201ZM282.916 65.1711H281.916V66.9222H282.916H283.916V65.1711H282.916ZM282.916 66.9222V65.9222H278.212V66.9222V67.9222H282.916V66.9222ZM278.212 66.9222H277.212V72.0299H278.212H279.212V66.9222H278.212ZM278.212 72.0299H277.212C277.212 72.5603 277.092 72.7713 277.027 72.8444C276.983 72.8944 276.861 73 276.467 73V74V75C277.236 75 277.987 74.7773 278.524 74.1706C279.041 73.587 279.212 72.8129 279.212 72.0299H278.212ZM276.467 74V73H228.057V74V75H276.467V74ZM228.057 74V73C225.579 73 224.151 72.4319 223.425 71.5939L222.669 72.2488L221.914 72.9037C223.211 74.4007 225.374 75 228.057 75V74ZM222.669 72.2488L223.438 71.6093C222.619 70.6248 222.095 69.0952 221.999 66.879L221 66.9222L220.001 66.9655C220.107 69.4191 220.696 71.4406 221.901 72.8883L222.669 72.2488ZM221 66.9222V67.9222H225.856V66.9222V65.9222H221V66.9222ZM225.856 66.9222H226.856V62.3983H225.856H224.856V66.9222H225.856ZM225.856 62.3983V61.3983H223.049V62.3983V63.3983H225.856V62.3983ZM223.049 62.3983H224.049V59.3337H223.049H222.049V62.3983H223.049ZM223.049 59.3337V60.3337H224.414V59.3337V58.3337H223.049V59.3337ZM224.414 59.3337H225.414V54.8098H224.414H223.414V59.3337H224.414ZM224.414 54.8098V55.8098H225.856V54.8098V53.8098H224.414V54.8098ZM225.856 54.8098H226.856V53.1316H225.856H224.856V54.8098H225.856ZM225.856 53.1316H226.856C226.856 49.171 227.641 46.04 229.131 43.6669L228.284 43.1352L227.437 42.6034C225.69 45.3867 224.856 48.9199 224.856 53.1316H225.856ZM228.284 43.1352V42.1352H221.683V43.1352V44.1352H228.284V43.1352ZM221.683 43.1352L222.452 43.7747L223.362 42.6802L222.593 42.0407L221.825 41.4011L220.914 42.4956L221.683 43.1352ZM222.593 42.0407L223.287 42.7615C223.375 42.6768 223.44 42.6196 223.484 42.5839C223.506 42.5663 223.518 42.5578 223.522 42.5555C223.527 42.5523 223.512 42.5625 223.482 42.5771L223.049 41.6758L222.615 40.7746C222.353 40.9007 222.098 41.1296 221.9 41.3199L222.593 42.0407ZM223.049 41.6758V42.6758H229.498V41.6758V40.6758H223.049V41.6758ZM229.498 41.6758L230.191 42.3966C232.376 40.2963 235.582 39.1734 239.969 39.1734V38.1734V37.1734C235.251 37.1734 231.477 38.3856 228.805 40.955L229.498 41.6758ZM239.969 38.1734V39.1734H271.535V38.1734V37.1734H239.969V38.1734ZM271.535 38.1734V39.1734C272.967 39.1734 274.222 38.8061 275.167 37.9462C276.108 37.0896 276.607 35.8659 276.777 34.4231L275.784 34.3062L274.791 34.1893C274.657 35.3246 274.296 36.0346 273.821 36.4671C273.349 36.8962 272.632 37.1734 271.535 37.1734V38.1734ZM275.784 34.3062V33.3062H268.955V34.3062V35.3062H275.784V34.3062ZM268.955 34.3062L269.923 34.5578C270.009 34.2264 270.031 33.77 270.031 33.2847H269.031H268.031C268.031 33.5126 268.025 33.6931 268.014 33.8308C268.009 33.8993 268.003 33.9525 267.998 33.9925C267.995 34.0123 267.992 34.0274 267.99 34.0383C267.989 34.0437 267.988 34.0477 267.988 34.0505C267.987 34.0534 267.987 34.0547 267.987 34.0546L268.955 34.3062ZM269.031 33.2847H270.031V29.7823H269.031H268.031V33.2847H269.031ZM269.031 29.7823V30.7823H273.963V29.7823V28.7823H269.031V29.7823ZM273.963 29.7823H274.963V28.6148H273.963H272.963V29.7823H273.963ZM273.963 28.6148H274.963C274.963 27.116 274.656 25.7694 273.996 24.616L273.128 25.1124L272.26 25.6089C272.713 26.4012 272.963 27.3896 272.963 28.6148H273.963ZM273.128 25.1124L274.015 24.6511C273.262 23.2021 271.735 22.6531 269.941 22.6531V23.6531V24.6531C271.385 24.6531 271.982 25.077 272.241 25.5738L273.128 25.1124ZM269.941 23.6531V22.6531H235.644V23.6531V24.6531H269.941V23.6531ZM235.644 23.6531V22.6531C235.413 22.6531 235.294 22.6092 235.239 22.5787C235.196 22.5544 235.151 22.5171 235.107 22.4231L234.203 22.8505L233.299 23.2778C233.507 23.7189 233.83 24.083 234.266 24.3262C234.692 24.5632 235.168 24.6531 235.644 24.6531V23.6531ZM234.203 22.8505V21.8505H229.422V22.8505V23.8505H234.203V22.8505ZM229.422 22.8505L230.354 22.4872C230.244 22.2053 230.195 21.939 230.195 21.683H229.195H228.195C228.195 22.2053 228.297 22.7174 228.491 23.2138L229.422 22.8505ZM229.195 21.683H230.195V21.3182H229.195H228.195V21.683H229.195ZM229.195 21.3182V22.3182H232.002V21.3182V20.3182H229.195V21.3182ZM232.002 21.3182H233.002V16.7213H232.002H231.002V21.3182H232.002ZM232.002 16.7213V15.7213H225.477V16.7213V17.7213H232.002V16.7213ZM225.477 16.7213H226.477V14.9701H225.477H224.477V16.7213H225.477ZM225.477 14.9701H226.477C226.477 14.4489 226.599 14.2444 226.666 14.1713C226.72 14.1131 226.866 14 227.298 14V13V12C226.516 12 225.751 12.2152 225.198 12.8137C224.658 13.3974 224.477 14.1779 224.477 14.9701H225.477ZM227.298 13V14H266.071V13V12H227.298V13ZM266.071 13V14C270.714 14 274.03 15.1964 276.207 17.4208L276.922 16.7213L277.637 16.0218C274.957 13.2845 271.04 12 266.071 12V13ZM276.922 16.7213V17.7213H281.095V16.7213V15.7213H276.922V16.7213ZM281.095 16.7213L280.402 17.4421C280.453 17.4907 280.491 17.5272 280.516 17.5516C280.528 17.5637 280.538 17.5729 280.544 17.579C280.547 17.582 280.55 17.5843 280.551 17.5858C280.552 17.5866 280.553 17.5871 280.553 17.5875C280.553 17.5877 280.554 17.5879 280.554 17.5879C280.554 17.588 280.554 17.588 280.554 17.5881C280.554 17.5881 280.554 17.5881 280.554 17.5881C280.554 17.5881 280.554 17.5881 280.554 17.5881C280.554 17.5881 280.554 17.5881 280.554 17.5881C280.554 17.5881 280.554 17.5881 281.247 16.8672C281.94 16.1464 281.94 16.1464 281.94 16.1464C281.94 16.1464 281.94 16.1464 281.94 16.1464C281.94 16.1464 281.94 16.1463 281.94 16.1463C281.94 16.1463 281.94 16.1463 281.94 16.1463C281.94 16.1463 281.94 16.1463 281.94 16.1462C281.94 16.1461 281.94 16.146 281.939 16.1458C281.939 16.1454 281.938 16.1448 281.938 16.1441C281.936 16.1426 281.934 16.1403 281.93 16.1373C281.924 16.1312 281.915 16.1221 281.902 16.1099C281.877 16.0856 281.839 16.0491 281.788 16.0005L281.095 16.7213ZM281.247 16.8672L280.448 17.4688C281.454 18.8044 282.213 20.1995 282.733 21.6548L283.675 21.3182L284.617 20.9816C284.024 19.3237 283.165 17.7515 282.046 16.2657L281.247 16.8672ZM283.675 21.3182V20.3182H279.426V21.3182V22.3182H283.675V21.3182ZM279.426 21.3182L278.481 21.6457C278.622 22.0524 278.766 22.5368 278.913 23.1021L279.881 22.8505L280.849 22.5989C280.692 21.9967 280.533 21.4596 280.371 20.9907L279.426 21.3182ZM279.881 22.8505V23.8505H284.737V22.8505V21.8505H279.881V22.8505ZM284.737 22.8505L283.763 23.0756C284.047 24.3049 284.193 25.6633 284.193 27.1555H285.193H286.193C286.193 25.5345 286.035 24.0229 285.712 22.6253L284.737 22.8505ZM285.193 27.1555H284.193V29.7823H285.193H286.193V27.1555H285.193ZM285.193 29.7823V28.7823H280.336V29.7823V30.7823H285.193V29.7823ZM280.336 29.7823H279.336V33.2847H280.336H281.336V29.7823H280.336ZM280.336 33.2847H279.336C279.336 33.3954 279.322 33.4506 279.316 33.4679L280.26 33.7955L281.205 34.123C281.3 33.8485 281.336 33.5632 281.336 33.2847H280.336ZM280.26 33.7955H279.26C279.26 33.7957 279.26 33.796 279.26 33.7963C279.26 33.7966 279.26 33.7969 279.26 33.7972C279.26 33.7975 279.26 33.7977 279.26 33.798C279.26 33.7983 279.26 33.7986 279.26 33.7989C279.26 33.7992 279.26 33.7995 279.26 33.7997C279.26 33.8 279.26 33.8003 279.26 33.8006C279.26 33.8009 279.26 33.8012 279.26 33.8015C279.26 33.8017 279.26 33.802 279.26 33.8023C279.26 33.8026 279.26 33.8029 279.26 33.8032C279.26 33.8035 279.26 33.8037 279.26 33.804C279.26 33.8043 279.26 33.8046 279.26 33.8049C279.26 33.8052 279.26 33.8055 279.26 33.8058C279.26 33.806 279.26 33.8063 279.26 33.8066C279.26 33.8069 279.26 33.8072 279.26 33.8075C279.26 33.8078 279.26 33.8081 279.26 33.8083C279.26 33.8086 279.26 33.8089 279.26 33.8092C279.26 33.8095 279.26 33.8098 279.26 33.8101C279.26 33.8104 279.26 33.8106 279.26 33.8109C279.26 33.8112 279.26 33.8115 279.26 33.8118C279.26 33.8121 279.26 33.8124 279.26 33.8127C279.26 33.813 279.26 33.8132 279.26 33.8135C279.26 33.8138 279.26 33.8141 279.26 33.8144C279.26 33.8147 279.26 33.815 279.26 33.8153C279.26 33.8156 279.26 33.8158 279.26 33.8161C279.26 33.8164 279.26 33.8167 279.26 33.817C279.26 33.8173 279.26 33.8176 279.26 33.8179C279.26 33.8182 279.26 33.8185 279.26 33.8187C279.26 33.819 279.26 33.8193 279.26 33.8196C279.26 33.8199 279.26 33.8202 279.26 33.8205C279.26 33.8208 279.26 33.8211 279.26 33.8214C279.26 33.8216 279.26 33.8219 279.26 33.8222C279.26 33.8225 279.26 33.8228 279.26 33.8231C279.26 33.8234 279.26 33.8237 279.26 33.824C279.26 33.8243 279.26 33.8246 279.26 33.8248C279.26 33.8251 279.26 33.8254 279.26 33.8257C279.26 33.826 279.26 33.8263 279.26 33.8266C279.26 33.8269 279.26 33.8272 279.26 33.8275C279.26 33.8278 279.26 33.8281 279.26 33.8284C279.26 33.8286 279.26 33.8289 279.26 33.8292C279.26 33.8295 279.26 33.8298 279.26 33.8301C279.26 33.8304 279.26 33.8307 279.26 33.831C279.26 33.8313 279.26 33.8316 279.26 33.8319C279.26 33.8322 279.26 33.8324 279.26 33.8327C279.26 33.833 279.26 33.8333 279.26 33.8336C279.26 33.8339 279.26 33.8342 279.26 33.8345C279.26 33.8348 279.26 33.8351 279.26 33.8354C279.26 33.8357 279.26 33.836 279.26 33.8363C279.26 33.8366 279.26 33.8368 279.26 33.8371C279.26 33.8374 279.26 33.8377 279.26 33.838C279.26 33.8383 279.26 33.8386 279.26 33.8389C279.26 33.8392 279.26 33.8395 279.26 33.8398C279.26 33.8401 279.26 33.8404 279.26 33.8407C279.26 33.841 279.26 33.8413 279.26 33.8416C279.26 33.8419 279.26 33.8421 279.26 33.8424C279.26 33.8427 279.26 33.843 279.26 33.8433C279.26 33.8436 279.26 33.8439 279.26 33.8442C279.26 33.8445 279.26 33.8448 279.26 33.8451C279.26 33.8454 279.26 33.8457 279.26 33.846C279.26 33.8463 279.26 33.8466 279.26 33.8469C279.26 33.8472 279.26 33.8475 279.26 33.8478C279.26 33.8481 279.26 33.8484 279.26 33.8487C279.26 33.8489 279.26 33.8492 279.26 33.8495C279.26 33.8498 279.26 33.8501 279.26 33.8504C279.26 33.8507 279.26 33.851 279.26 33.8513C279.26 33.8516 279.26 33.8519 279.26 33.8522C279.26 33.8525 279.26 33.8528 279.26 33.8531C279.26 33.8534 279.26 33.8537 279.26 33.854C279.26 33.8543 279.26 33.8546 279.26 33.8549C279.26 33.8552 279.26 33.8555 279.26 33.8558C279.26 33.8561 279.26 33.8564 279.26 33.8567C279.26 33.857 279.26 33.8573 279.26 33.8576C279.26 33.8579 279.26 33.8582 279.26 33.8585C279.26 33.8588 279.26 33.8591 279.26 33.8594C279.26 33.8597 279.26 33.86 279.26 33.8603C279.26 33.8606 279.26 33.8609 279.26 33.8612C279.26 33.8615 279.26 33.8617 279.26 33.862C279.26 33.8623 279.26 33.8626 279.26 33.8629C279.26 33.8632 279.26 33.8635 279.26 33.8638C279.26 33.8641 279.26 33.8644 279.26 33.8647C279.26 33.865 279.26 33.8653 279.26 33.8656C279.26 33.8659 279.26 33.8662 279.26 33.8665C279.26 33.8668 279.26 33.8671 279.26 33.8674C279.26 33.8677 279.26 33.868 279.26 33.8683C279.26 33.8686 279.26 33.8689 279.26 33.8692C279.26 33.8695 279.26 33.8698 279.26 33.8701C279.26 33.8704 279.26 33.8707 279.26 33.8711C279.26 33.8714 279.26 33.8717 279.26 33.872C279.26 33.8723 279.26 33.8726 279.26 33.8729C279.26 33.8732 279.26 33.8735 279.26 33.8738C279.26 33.8741 279.26 33.8744 279.26 33.8747C279.26 33.875 279.26 33.8753 279.26 33.8756C279.26 33.8759 279.26 33.8762 279.26 33.8765C279.26 33.8768 279.26 33.8771 279.26 33.8774C279.26 33.8777 279.26 33.878 279.26 33.8783C279.26 33.8786 279.26 33.8789 279.26 33.8792C279.26 33.8795 279.26 33.8798 279.26 33.8801C279.26 33.8804 279.26 33.8807 279.26 33.881C279.26 33.8813 279.26 33.8816 279.26 33.8819C279.26 33.8822 279.26 33.8825 279.26 33.8828C279.26 33.8831 279.26 33.8834 279.26 33.8837C279.26 33.884 279.26 33.8844 279.26 33.8847C279.26 33.885 279.26 33.8853 279.26 33.8856C279.26 33.8859 279.26 33.8862 279.26 33.8865C279.26 33.8868 279.26 33.8871 279.26 33.8874C279.26 33.8877 279.26 33.888 279.26 33.8883C279.26 33.8886 279.26 33.8889 279.26 33.8892C279.26 33.8895 279.26 33.8898 279.26 33.8901C279.26 33.8904 279.26 33.8907 279.26 33.891C279.26 33.8914 279.26 33.8917 279.26 33.892C279.26 33.8923 279.26 33.8926 279.26 33.8929C279.26 33.8932 279.26 33.8935 279.26 33.8938C279.26 33.8941 279.26 33.8944 279.26 33.8947C279.26 33.895 279.26 33.8953 279.26 33.8956C279.26 33.8959 279.26 33.8962 279.26 33.8966C279.26 33.8969 279.26 33.8972 279.26 33.8975C279.26 33.8978 279.26 33.8981 279.26 33.8984C279.26 33.8987 279.26 33.899 279.26 33.8993C279.26 33.8996 279.26 33.8999 279.26 33.9002C279.26 33.9005 279.26 33.9008 279.26 33.9012C279.26 33.9015 279.26 33.9018 279.26 33.9021C279.26 33.9024 279.26 33.9027 279.26 33.903C279.26 33.9033 279.26 33.9036 279.26 33.9039C279.26 33.9042 279.26 33.9045 279.26 33.9048C279.26 33.9051 279.26 33.9055 279.26 33.9058C279.26 33.9061 279.26 33.9064 279.26 33.9067C279.26 33.907 279.26 33.9073 279.26 33.9076C279.26 33.9079 279.26 33.9082 279.26 33.9085C279.26 33.9088 279.26 33.9092 279.26 33.9095C279.26 33.9098 279.26 33.9101 279.26 33.9104C279.26 33.9107 279.26 33.911 279.26 33.9113C279.26 33.9116 279.26 33.9119 279.26 33.9122C279.26 33.9126 279.26 33.9129 279.26 33.9132C279.26 33.9135 279.26 33.9138 279.26 33.9141C279.26 33.9144 279.26 33.9147 279.26 33.915C279.26 33.9153 279.26 33.9157 279.26 33.916C279.26 33.9163 279.26 33.9166 279.26 33.9169C279.26 33.9172 279.26 33.9175 279.26 33.9178C279.26 33.9181 279.26 33.9184 279.26 33.9188C279.26 33.9191 279.26 33.9194 279.26 33.9197C279.26 33.92 279.26 33.9203 279.26 33.9206C279.26 33.9209 279.26 33.9212 279.26 33.9216C279.26 33.9219 279.26 33.9222 279.26 33.9225C279.26 33.9228 279.26 33.9231 279.26 33.9234C279.26 33.9237 279.26 33.924 279.26 33.9244C279.26 33.9247 279.26 33.925 279.26 33.9253C279.26 33.9256 279.26 33.9259 279.26 33.9262C279.26 33.9265 279.26 33.9269 279.26 33.9272C279.26 33.9275 279.26 33.9278 279.26 33.9281C279.26 33.9284 279.26 33.9287 279.26 33.929C279.26 33.9294 279.26 33.9297 279.26 33.93C279.26 33.9303 279.26 33.9306 279.26 33.9309C279.26 33.9312 279.26 33.9315 279.26 33.9319C279.26 33.9322 279.26 33.9325 279.26 33.9328C279.26 33.9331 279.26 33.9334 279.26 33.9337C279.26 33.9341 279.26 33.9344 279.26 33.9347C279.26 33.935 279.26 33.9353 279.26 33.9356C279.26 33.9359 279.26 33.9362 279.26 33.9366C279.26 33.9369 279.26 33.9372 279.26 33.9375C279.26 33.9378 279.26 33.9381 279.26 33.9384C279.26 33.9388 279.26 33.9391 279.26 33.9394C279.26 33.9397 279.26 33.94 279.26 33.9403C279.26 33.9407 279.26 33.941 279.26 33.9413C279.26 33.9416 279.26 33.9419 279.26 33.9422C279.26 33.9425 279.26 33.9429 279.26 33.9432C279.26 33.9435 279.26 33.9438 279.26 33.9441C279.26 33.9444 279.26 33.9448 279.26 33.9451C279.26 33.9454 279.26 33.9457 279.26 33.946C279.26 33.9463 279.26 33.9466 279.26 33.947C279.26 33.9473 279.26 33.9476 279.26 33.9479C279.26 33.9482 279.26 33.9485 279.26 33.9489C279.26 33.9492 279.26 33.9495 279.26 33.9498C279.26 33.9501 279.26 33.9504 279.26 33.9508C279.26 33.9511 279.26 33.9514 279.26 33.9517C279.26 33.952 279.26 33.9523 279.26 33.9527C279.26 33.953 279.26 33.9533 279.26 33.9536C279.26 33.9539 279.26 33.9543 279.26 33.9546C279.26 33.9549 279.26 33.9552 279.26 33.9555C279.26 33.9558 279.26 33.9562 279.26 33.9565C279.26 33.9568 279.26 33.9571 279.26 33.9574C279.26 33.9578 279.26 33.9581 279.26 33.9584C279.26 33.9587 279.26 33.959 279.26 33.9593C279.26 33.9597 279.26 33.96 279.26 33.9603C279.26 33.9606 279.26 33.9609 279.26 33.9613C279.26 33.9616 279.26 33.9619 279.26 33.9622C279.26 33.9625 279.26 33.9629 279.26 33.9632C279.26 33.9635 279.26 33.9638 279.26 33.9641C279.26 33.9644 279.26 33.9648 279.26 33.9651C279.26 33.9654 279.26 33.9657 279.26 33.966C279.26 33.9664 279.26 33.9667 279.26 33.967C279.26 33.9673 279.26 33.9676 279.26 33.968C279.26 33.9683 279.26 33.9686 279.26 33.9689C279.26 33.9692 279.26 33.9696 279.26 33.9699C279.26 33.9702 279.26 33.9705 279.26 33.9709C279.26 33.9712 279.26 33.9715 279.26 33.9718C279.26 33.9721 279.26 33.9725 279.26 33.9728C279.26 33.9731 279.26 33.9734 279.26 33.9737C279.26 33.9741 279.26 33.9744 279.26 33.9747C279.26 33.975 279.26 33.9754 279.26 33.9757C279.26 33.976 279.26 33.9763 279.26 33.9766C279.26 33.977 279.26 33.9773 279.26 33.9776C279.26 33.9779 279.26 33.9782 279.26 33.9786C279.26 33.9789 279.26 33.9792 279.26 33.9795C279.26 33.9799 279.26 33.9802 279.26 33.9805C279.26 33.9808 279.26 33.9812 279.26 33.9815C279.26 33.9818 279.26 33.9821 279.26 33.9824C279.26 33.9828 279.26 33.9831 279.26 33.9834C279.26 33.9837 279.26 33.9841 279.26 33.9844C279.26 33.9847 279.26 33.985 279.26 33.9854C279.26 33.9857 279.26 33.986 279.26 33.9863C279.26 33.9866 279.26 33.987 279.26 33.9873C279.26 33.9876 279.26 33.9879 279.26 33.9883C279.26 33.9886 279.26 33.9889 279.26 33.9892C279.26 33.9896 279.26 33.9899 279.26 33.9902C279.26 33.9905 279.26 33.9909 279.26 33.9912C279.26 33.9915 279.26 33.9918 279.26 33.9922C279.26 33.9925 279.26 33.9928 279.26 33.9931C279.26 33.9935 279.26 33.9938 279.26 33.9941C279.26 33.9944 279.26 33.9948 279.26 33.9951C279.26 33.9954 279.26 33.9957 279.26 33.9961C279.26 33.9964 279.26 33.9967 279.26 33.997C279.26 33.9974 279.26 33.9977 279.26 33.998C279.26 33.9983 279.26 33.9987 279.26 33.999C279.26 33.9993 279.26 33.9997 279.26 34C279.26 34.0003 279.26 34.0006 279.26 34.001C279.26 34.0013 279.26 34.0016 279.26 34.0019C279.26 34.0023 279.26 34.0026 279.26 34.0029C279.26 34.0032 279.26 34.0036 279.26 34.0039C279.26 34.0042 279.26 34.0046 279.26 34.0049C279.26 34.0052 279.26 34.0055 279.26 34.0059C279.26 34.0062 279.26 34.0065 279.26 34.0068C279.26 34.0072 279.26 34.0075 279.26 34.0078C279.26 34.0082 279.26 34.0085 279.26 34.0088C279.26 34.0091 279.26 34.0095 279.26 34.0098C279.26 34.0101 279.26 34.0105 279.26 34.0108C279.26 34.0111 279.26 34.0114 279.26 34.0118C279.26 34.0121 279.26 34.0124 279.26 34.0128C279.26 34.0131 279.26 34.0134 279.26 34.0137C279.26 34.0141 279.26 34.0144 279.26 34.0147C279.26 34.0151 279.26 34.0154 279.26 34.0157C279.26 34.016 279.26 34.0164 279.26 34.0167C279.26 34.017 279.26 34.0174 279.26 34.0177C279.26 34.018 279.26 34.0184 279.26 34.0187C279.26 34.019 279.26 34.0193 279.26 34.0197C279.26 34.02 279.26 34.0203 279.26 34.0207C279.26 34.021 279.26 34.0213 279.26 34.0217C279.26 34.022 279.26 34.0223 279.26 34.0226C279.26 34.023 279.26 34.0233 279.26 34.0236C279.26 34.024 279.26 34.0243 279.26 34.0246C279.26 34.025 279.26 34.0253 279.26 34.0256C279.26 34.026 279.26 34.0263 279.26 34.0266C279.26 34.027 279.26 34.0273 279.26 34.0276C279.26 34.0279 279.26 34.0283 279.26 34.0286C279.26 34.0289 279.26 34.0293 279.26 34.0296C279.26 34.0299 279.26 34.0303 279.26 34.0306C279.26 34.0309 279.26 34.0313 279.26 34.0316C279.26 34.0319 279.26 34.0323 279.26 34.0326C279.26 34.0329 279.26 34.0333 279.26 34.0336C279.26 34.0339 279.26 34.0343 279.26 34.0346C279.26 34.0349 279.26 34.0353 279.26 34.0356C279.26 34.0359 279.26 34.0363 279.26 34.0366C279.26 34.0369 279.26 34.0373 279.26 34.0376C279.26 34.0379 279.26 34.0383 279.26 34.0386C279.26 34.0389 279.26 34.0393 279.26 34.0396C279.26 34.0399 279.26 34.0403 279.26 34.0406C279.26 34.0409 279.26 34.0413 279.26 34.0416C279.26 34.0419 279.26 34.0423 279.26 34.0426C279.26 34.0429 279.26 34.0433 279.26 34.0436C279.26 34.0439 279.26 34.0443 279.26 34.0446C279.26 34.0449 279.26 34.0453 279.26 34.0456C279.26 34.0459 279.26 34.0463 279.26 34.0466C279.26 34.047 279.26 34.0473 279.26 34.0476C279.26 34.048 279.26 34.0483 279.26 34.0486C279.26 34.049 279.26 34.0493 279.26 34.0496C279.26 34.05 279.26 34.0503 279.26 34.0506C279.26 34.051 279.26 34.0513 279.26 34.0517C279.26 34.052 279.26 34.0523 279.26 34.0527C279.26 34.053 279.26 34.0533 279.26 34.0537C279.26 34.054 279.26 34.0543 279.26 34.0547C279.26 34.055 279.26 34.0554 279.26 34.0557C279.26 34.056 279.26 34.0564 279.26 34.0567C279.26 34.057 279.26 34.0574 279.26 34.0577C279.26 34.058 279.26 34.0584 279.26 34.0587C279.26 34.0591 279.26 34.0594 279.26 34.0597C279.26 34.0601 279.26 34.0604 279.26 34.0607C279.26 34.0611 279.26 34.0614 279.26 34.0618C279.26 34.0621 279.26 34.0624 279.26 34.0628C279.26 34.0631 279.26 34.0635 279.26 34.0638C279.26 34.0641 279.26 34.0645 279.26 34.0648C279.26 34.0651 279.26 34.0655 279.26 34.0658C279.26 34.0662 279.26 34.0665 279.26 34.0668C279.26 34.0672 279.26 34.0675 279.26 34.0679C279.26 34.0682 279.26 34.0685 279.26 34.0689C279.26 34.0692 279.26 34.0695 279.26 34.0699C279.26 34.0702 279.26 34.0706 279.26 34.0709C279.26 34.0712 279.26 34.0716 279.26 34.0719C279.26 34.0723 279.26 34.0726 279.26 34.0729C279.26 34.0733 279.26 34.0736 279.26 34.074C279.26 34.0743 279.26 34.0746 279.26 34.075C279.26 34.0753 279.26 34.0757 279.26 34.076C279.26 34.0763 279.26 34.0767 279.26 34.077C279.26 34.0774 279.26 34.0777 279.26 34.0781C279.26 34.0784 279.26 34.0787 279.26 34.0791C279.26 34.0794 279.26 34.0798 279.26 34.0801C279.26 34.0804 279.26 34.0808 279.26 34.0811C279.26 34.0815 279.26 34.0818 279.26 34.0821C279.26 34.0825 279.26 34.0828 279.26 34.0832C279.26 34.0835 279.26 34.0839 279.26 34.0842C279.26 34.0845 279.26 34.0849 279.26 34.0852C279.26 34.0856 279.26 34.0859 279.26 34.0863C279.26 34.0866 279.26 34.0869 279.26 34.0873C279.26 34.0876 279.26 34.088 279.26 34.0883C279.26 34.0886 279.26 34.089 279.26 34.0893C279.26 34.0897 279.26 34.09 279.26 34.0904C279.26 34.0907 279.26 34.091 279.26 34.0914C279.26 34.0917 279.26 34.0921 279.26 34.0924C279.26 34.0928 279.26 34.0931 279.26 34.0935C279.26 34.0938 279.26 34.0941 279.26 34.0945C279.26 34.0948 279.26 34.0952 279.26 34.0955C279.26 34.0959 279.26 34.0962 279.26 34.0965C279.26 34.0969 279.26 34.0972 279.26 34.0976C279.26 34.0979 279.26 34.0983 279.26 34.0986C279.26 34.099 279.26 34.0993 279.26 34.0996C279.26 34.1 279.26 34.1003 279.26 34.1007C279.26 34.101 279.26 34.1014 279.26 34.1017C279.26 34.1021 279.26 34.1024 279.26 34.1028C279.26 34.1031 279.26 34.1034 279.26 34.1038C279.26 34.1041 279.26 34.1045 279.26 34.1048C279.26 34.1052 279.26 34.1055 279.26 34.1059C279.26 34.1062 279.26 34.1066 279.26 34.1069C279.26 34.1072 279.26 34.1076 279.26 34.1079C279.26 34.1083 279.26 34.1086 279.26 34.109C279.26 34.1093 279.26 34.1097 279.26 34.11C279.26 34.1104 279.26 34.1107 279.26 34.1111C279.26 34.1114 279.26 34.1118 279.26 34.1121C279.26 34.1124 279.26 34.1128 279.26 34.1131C279.26 34.1135 279.26 34.1138 279.26 34.1142C279.26 34.1145 279.26 34.1149 279.26 34.1152C279.26 34.1156 279.26 34.1159 279.26 34.1163C279.26 34.1166 279.26 34.117 279.26 34.1173C279.26 34.1177 279.26 34.118 279.26 34.1184C279.26 34.1187 279.26 34.1191 279.26 34.1194C279.26 34.1198 279.26 34.1201 279.26 34.1204C279.26 34.1208 279.26 34.1211 279.26 34.1215C279.26 34.1218 279.26 34.1222 279.26 34.1225C279.26 34.1229 279.26 34.1232 279.26 34.1236C279.26 34.1239 279.26 34.1243 279.26 34.1246C279.26 34.125 279.26 34.1253 279.26 34.1257C279.26 34.126 279.26 34.1264 279.26 34.1267C279.26 34.1271 279.26 34.1274 279.26 34.1278C279.26 34.1281 279.26 34.1285 279.26 34.1288C279.26 34.1292 279.26 34.1295 279.26 34.1299C279.26 34.1302 279.26 34.1306 279.26 34.1309C279.26 34.1313 279.26 34.1316 279.26 34.132C279.26 34.1323 279.26 34.1327 279.26 34.133C279.26 34.1334 279.26 34.1337 279.26 34.1341C279.26 34.1344 279.26 34.1348 279.26 34.1351C279.26 34.1355 279.26 34.1358 279.26 34.1362C279.26 34.1365 279.26 34.1369 279.26 34.1372C279.26 34.1376 279.26 34.1379 279.26 34.1383C279.26 34.1387 279.26 34.139 279.26 34.1394C279.26 34.1397 279.26 34.1401 279.26 34.1404C279.26 34.1408 279.26 34.1411 279.26 34.1415C279.26 34.1418 279.26 34.1422 279.26 34.1425C279.26 34.1429 279.26 34.1432 279.26 34.1436C279.26 34.1439 279.26 34.1443 279.26 34.1446C279.26 34.145 279.26 34.1453 279.26 34.1457C279.26 34.1461 279.26 34.1464 279.26 34.1468C279.26 34.1471 279.26 34.1475 279.26 34.1478C279.26 34.1482 279.26 34.1485 279.26 34.1489C279.26 34.1492 279.26 34.1496 279.26 34.1499C279.26 34.1503 279.26 34.1506 279.26 34.151C279.26 34.1514 279.26 34.1517 279.26 34.1521C279.26 34.1524 279.26 34.1528 279.26 34.1531C279.26 34.1535 279.26 34.1538 279.26 34.1542C279.26 34.1545 279.26 34.1549 279.26 34.1553C279.26 34.1556 279.26 34.156 279.26 34.1563C279.26 34.1567 279.26 34.157 279.26 34.1574C279.26 34.1577 279.26 34.1581 279.26 34.1584C279.26 34.1588 279.26 34.1592 279.26 34.1595C279.26 34.1599 279.26 34.1602 279.26 34.1606C279.26 34.1609 279.26 34.1613 279.26 34.1616C279.26 34.162 279.26 34.1624 279.26 34.1627C279.26 34.1631 279.26 34.1634 279.26 34.1638C279.26 34.1641 279.26 34.1645 279.26 34.1648C279.26 34.1652 279.26 34.1656 279.26 34.1659C279.26 34.1663 279.26 34.1666 279.26 34.167C279.26 34.1673 279.26 34.1677 279.26 34.1681C279.26 34.1684 279.26 34.1688 279.26 34.1691C279.26 34.1695 279.26 34.1698 279.26 34.1702C279.26 34.1706 279.26 34.1709 279.26 34.1713C279.26 34.1716 279.26 34.172 279.26 34.1723C279.26 34.1727 279.26 34.1731 279.26 34.1734C279.26 34.1738 279.26 34.1741 279.26 34.1745C279.26 34.1748 279.26 34.1752 279.26 34.1756C279.26 34.1759 279.26 34.1763 279.26 34.1766C279.26 34.177 279.26 34.1774 279.26 34.1777C279.26 34.1781 279.26 34.1784 279.26 34.1788C279.26 34.1791 279.26 34.1795 279.26 34.1799C279.26 34.1802 279.26 34.1806 279.26 34.1809C279.26 34.1813 279.26 34.1817 279.26 34.182C279.26 34.1824 279.26 34.1827 279.26 34.1831C279.26 34.1835 279.26 34.1838 279.26 34.1842C279.26 34.1845 279.26 34.1849 279.26 34.1853C279.26 34.1856 279.26 34.186 279.26 34.1863C279.26 34.1867 279.26 34.1871 279.26 34.1874C279.26 34.1878 279.26 34.1881 279.26 34.1885C279.26 34.1889 279.26 34.1892 279.26 34.1896C279.26 34.1899 279.26 34.1903 279.26 34.1907C279.26 34.191 279.26 34.1914 279.26 34.1917C279.26 34.1921 279.26 34.1925 279.26 34.1928C279.26 34.1932 279.26 34.1935 279.26 34.1939C279.26 34.1943 279.26 34.1946 279.26 34.195C279.26 34.1954 279.26 34.1957 279.26 34.1961C279.26 34.1964 279.26 34.1968 279.26 34.1972C279.26 34.1975 279.26 34.1979 279.26 34.1982C279.26 34.1986 279.26 34.199 279.26 34.1993C279.26 34.1997 279.26 34.2001 279.26 34.2004C279.26 34.2008 279.26 34.2011 279.26 34.2015C279.26 34.2019 279.26 34.2022 279.26 34.2026C279.26 34.203 279.26 34.2033 279.26 34.2037C279.26 34.2041 279.26 34.2044 279.26 34.2048C279.26 34.2051 279.26 34.2055 279.26 34.2059C279.26 34.2062 279.26 34.2066 279.26 34.207C279.26 34.2073 279.26 34.2077 279.26 34.208C279.26 34.2084 279.26 34.2088 279.26 34.2091C279.26 34.2095 279.26 34.2099 279.26 34.2102C279.26 34.2106 279.26 34.211 279.26 34.2113C279.26 34.2117 279.26 34.2121 279.26 34.2124C279.26 34.2128 279.26 34.2131 279.26 34.2135C279.26 34.2139 279.26 34.2142 279.26 34.2146C279.26 34.215 279.26 34.2153 279.26 34.2157C279.26 34.2161 279.26 34.2164 279.26 34.2168C279.26 34.2172 279.26 34.2175 279.26 34.2179C279.26 34.2183 279.26 34.2186 279.26 34.219C279.26 34.2194 279.26 34.2197 279.26 34.2201C279.26 34.2204 279.26 34.2208 279.26 34.2212C279.26 34.2215 279.26 34.2219 279.26 34.2223C279.26 34.2226 279.26 34.223 279.26 34.2234C279.26 34.2237 279.26 34.2241 279.26 34.2245C279.26 34.2248 279.26 34.2252 279.26 34.2256C279.26 34.2259 279.26 34.2263 279.26 34.2267C279.26 34.227 279.26 34.2274 279.26 34.2278C279.26 34.2281 279.26 34.2285 279.26 34.2289C279.26 34.2292 279.26 34.2296 279.26 34.23C279.26 34.2303 279.26 34.2307 279.26 34.2311C279.26 34.2315 279.26 34.2318 279.26 34.2322C279.26 34.2326 279.26 34.2329 279.26 34.2333C279.26 34.2337 279.26 34.234 279.26 34.2344C279.26 34.2348 279.26 34.2351 279.26 34.2355C279.26 34.2359 279.26 34.2362 279.26 34.2366C279.26 34.237 279.26 34.2373 279.26 34.2377C279.26 34.2381 279.26 34.2384 279.26 34.2388C279.26 34.2392 279.26 34.2396 279.26 34.2399C279.26 34.2403 279.26 34.2407 279.26 34.241C279.26 34.2414 279.26 34.2418 279.26 34.2421C279.26 34.2425 279.26 34.2429 279.26 34.2432C279.26 34.2436 279.26 34.244 279.26 34.2444C279.26 34.2447 279.26 34.2451 279.26 34.2455C279.26 34.2458 279.26 34.2462 279.26 34.2466C279.26 34.2469 279.26 34.2473 279.26 34.2477C279.26 34.2481 279.26 34.2484 279.26 34.2488C279.26 34.2492 279.26 34.2495 279.26 34.2499C279.26 34.2503 279.26 34.2507 279.26 34.251C279.26 34.2514 279.26 34.2518 279.26 34.2521C279.26 34.2525 279.26 34.2529 279.26 34.2533C279.26 34.2536 279.26 34.254 279.26 34.2544C279.26 34.2547 279.26 34.2551 279.26 34.2555C279.26 34.2559 279.26 34.2562 279.26 34.2566C279.26 34.257 279.26 34.2573 279.26 34.2577C279.26 34.2581 279.26 34.2585 279.26 34.2588C279.26 34.2592 279.26 34.2596 279.26 34.2599C279.26 34.2603 279.26 34.2607 279.26 34.2611C279.26 34.2614 279.26 34.2618 279.26 34.2622C279.26 34.2626 279.26 34.2629 279.26 34.2633C279.26 34.2637 279.26 34.264 279.26 34.2644C279.26 34.2648 279.26 34.2652 279.26 34.2655C279.26 34.2659 279.26 34.2663 279.26 34.2667C279.26 34.267 279.26 34.2674 279.26 34.2678C279.26 34.2682 279.26 34.2685 279.26 34.2689C279.26 34.2693 279.26 34.2696 279.26 34.27C279.26 34.2704 279.26 34.2708 279.26 34.2711C279.26 34.2715 279.26 34.2719 279.26 34.2723C279.26 34.2726 279.26 34.273 279.26 34.2734C279.26 34.2738 279.26 34.2741 279.26 34.2745C279.26 34.2749 279.26 34.2753 279.26 34.2756C279.26 34.276 279.26 34.2764 279.26 34.2768C279.26 34.2771 279.26 34.2775 279.26 34.2779C279.26 34.2783 279.26 34.2786 279.26 34.279C279.26 34.2794 279.26 34.2798 279.26 34.2801C279.26 34.2805 279.26 34.2809 279.26 34.2813C279.26 34.2816 279.26 34.282 279.26 34.2824C279.26 34.2828 279.26 34.2832 279.26 34.2835C279.26 34.2839 279.26 34.2843 279.26 34.2847C279.26 34.285 279.26 34.2854 279.26 34.2858C279.26 34.2862 279.26 34.2865 279.26 34.2869C279.26 34.2873 279.26 34.2877 279.26 34.2881C279.26 34.2884 279.26 34.2888 279.26 34.2892C279.26 34.2896 279.26 34.2899 279.26 34.2903C279.26 34.2907 279.26 34.2911 279.26 34.2914C279.26 34.2918 279.26 34.2922 279.26 34.2926C279.26 34.293 279.26 34.2933 279.26 34.2937C279.26 34.2941 279.26 34.2945 279.26 34.2948C279.26 34.2952 279.26 34.2956 279.26 34.296C279.26 34.2964 279.26 34.2967 279.26 34.2971C279.26 34.2975 279.26 34.2979 279.26 34.2983C279.26 34.2986 279.26 34.299 279.26 34.2994C279.26 34.2998 279.26 34.3001 279.26 34.3005C279.26 34.3009 279.26 34.3013 279.26 34.3017C279.26 34.302 279.26 34.3024 279.26 34.3028C279.26 34.3032 279.26 34.3036 279.26 34.3039C279.26 34.3043 279.26 34.3047 279.26 34.3051C279.26 34.3055 279.26 34.3058 279.26 34.3062H280.26H281.26C281.26 34.3058 281.26 34.3055 281.26 34.3051C281.26 34.3047 281.26 34.3043 281.26 34.3039C281.26 34.3036 281.26 34.3032 281.26 34.3028C281.26 34.3024 281.26 34.302 281.26 34.3017C281.26 34.3013 281.26 34.3009 281.26 34.3005C281.26 34.3001 281.26 34.2998 281.26 34.2994C281.26 34.299 281.26 34.2986 281.26 34.2983C281.26 34.2979 281.26 34.2975 281.26 34.2971C281.26 34.2967 281.26 34.2964 281.26 34.296C281.26 34.2956 281.26 34.2952 281.26 34.2948C281.26 34.2945 281.26 34.2941 281.26 34.2937C281.26 34.2933 281.26 34.293 281.26 34.2926C281.26 34.2922 281.26 34.2918 281.26 34.2914C281.26 34.2911 281.26 34.2907 281.26 34.2903C281.26 34.2899 281.26 34.2896 281.26 34.2892C281.26 34.2888 281.26 34.2884 281.26 34.2881C281.26 34.2877 281.26 34.2873 281.26 34.2869C281.26 34.2865 281.26 34.2862 281.26 34.2858C281.26 34.2854 281.26 34.285 281.26 34.2847C281.26 34.2843 281.26 34.2839 281.26 34.2835C281.26 34.2832 281.26 34.2828 281.26 34.2824C281.26 34.282 281.26 34.2816 281.26 34.2813C281.26 34.2809 281.26 34.2805 281.26 34.2801C281.26 34.2798 281.26 34.2794 281.26 34.279C281.26 34.2786 281.26 34.2783 281.26 34.2779C281.26 34.2775 281.26 34.2771 281.26 34.2768C281.26 34.2764 281.26 34.276 281.26 34.2756C281.26 34.2753 281.26 34.2749 281.26 34.2745C281.26 34.2741 281.26 34.2738 281.26 34.2734C281.26 34.273 281.26 34.2726 281.26 34.2723C281.26 34.2719 281.26 34.2715 281.26 34.2711C281.26 34.2708 281.26 34.2704 281.26 34.27C281.26 34.2696 281.26 34.2693 281.26 34.2689C281.26 34.2685 281.26 34.2682 281.26 34.2678C281.26 34.2674 281.26 34.267 281.26 34.2667C281.26 34.2663 281.26 34.2659 281.26 34.2655C281.26 34.2652 281.26 34.2648 281.26 34.2644C281.26 34.264 281.26 34.2637 281.26 34.2633C281.26 34.2629 281.26 34.2626 281.26 34.2622C281.26 34.2618 281.26 34.2614 281.26 34.2611C281.26 34.2607 281.26 34.2603 281.26 34.2599C281.26 34.2596 281.26 34.2592 281.26 34.2588C281.26 34.2585 281.26 34.2581 281.26 34.2577C281.26 34.2573 281.26 34.257 281.26 34.2566C281.26 34.2562 281.26 34.2559 281.26 34.2555C281.26 34.2551 281.26 34.2547 281.26 34.2544C281.26 34.254 281.26 34.2536 281.26 34.2533C281.26 34.2529 281.26 34.2525 281.26 34.2521C281.26 34.2518 281.26 34.2514 281.26 34.251C281.26 34.2507 281.26 34.2503 281.26 34.2499C281.26 34.2495 281.26 34.2492 281.26 34.2488C281.26 34.2484 281.26 34.2481 281.26 34.2477C281.26 34.2473 281.26 34.2469 281.26 34.2466C281.26 34.2462 281.26 34.2458 281.26 34.2455C281.26 34.2451 281.26 34.2447 281.26 34.2444C281.26 34.244 281.26 34.2436 281.26 34.2432C281.26 34.2429 281.26 34.2425 281.26 34.2421C281.26 34.2418 281.26 34.2414 281.26 34.241C281.26 34.2407 281.26 34.2403 281.26 34.2399C281.26 34.2396 281.26 34.2392 281.26 34.2388C281.26 34.2384 281.26 34.2381 281.26 34.2377C281.26 34.2373 281.26 34.237 281.26 34.2366C281.26 34.2362 281.26 34.2359 281.26 34.2355C281.26 34.2351 281.26 34.2348 281.26 34.2344C281.26 34.234 281.26 34.2337 281.26 34.2333C281.26 34.2329 281.26 34.2326 281.26 34.2322C281.26 34.2318 281.26 34.2315 281.26 34.2311C281.26 34.2307 281.26 34.2303 281.26 34.23C281.26 34.2296 281.26 34.2292 281.26 34.2289C281.26 34.2285 281.26 34.2281 281.26 34.2278C281.26 34.2274 281.26 34.227 281.26 34.2267C281.26 34.2263 281.26 34.2259 281.26 34.2256C281.26 34.2252 281.26 34.2248 281.26 34.2245C281.26 34.2241 281.26 34.2237 281.26 34.2234C281.26 34.223 281.26 34.2226 281.26 34.2223C281.26 34.2219 281.26 34.2215 281.26 34.2212C281.26 34.2208 281.26 34.2204 281.26 34.2201C281.26 34.2197 281.26 34.2194 281.26 34.219C281.26 34.2186 281.26 34.2183 281.26 34.2179C281.26 34.2175 281.26 34.2172 281.26 34.2168C281.26 34.2164 281.26 34.2161 281.26 34.2157C281.26 34.2153 281.26 34.215 281.26 34.2146C281.26 34.2142 281.26 34.2139 281.26 34.2135C281.26 34.2131 281.26 34.2128 281.26 34.2124C281.26 34.2121 281.26 34.2117 281.26 34.2113C281.26 34.211 281.26 34.2106 281.26 34.2102C281.26 34.2099 281.26 34.2095 281.26 34.2091C281.26 34.2088 281.26 34.2084 281.26 34.208C281.26 34.2077 281.26 34.2073 281.26 34.207C281.26 34.2066 281.26 34.2062 281.26 34.2059C281.26 34.2055 281.26 34.2051 281.26 34.2048C281.26 34.2044 281.26 34.2041 281.26 34.2037C281.26 34.2033 281.26 34.203 281.26 34.2026C281.26 34.2022 281.26 34.2019 281.26 34.2015C281.26 34.2011 281.26 34.2008 281.26 34.2004C281.26 34.2001 281.26 34.1997 281.26 34.1993C281.26 34.199 281.26 34.1986 281.26 34.1982C281.26 34.1979 281.26 34.1975 281.26 34.1972C281.26 34.1968 281.26 34.1964 281.26 34.1961C281.26 34.1957 281.26 34.1954 281.26 34.195C281.26 34.1946 281.26 34.1943 281.26 34.1939C281.26 34.1935 281.26 34.1932 281.26 34.1928C281.26 34.1925 281.26 34.1921 281.26 34.1917C281.26 34.1914 281.26 34.191 281.26 34.1907C281.26 34.1903 281.26 34.1899 281.26 34.1896C281.26 34.1892 281.26 34.1889 281.26 34.1885C281.26 34.1881 281.26 34.1878 281.26 34.1874C281.26 34.1871 281.26 34.1867 281.26 34.1863C281.26 34.186 281.26 34.1856 281.26 34.1853C281.26 34.1849 281.26 34.1845 281.26 34.1842C281.26 34.1838 281.26 34.1835 281.26 34.1831C281.26 34.1827 281.26 34.1824 281.26 34.182C281.26 34.1817 281.26 34.1813 281.26 34.1809C281.26 34.1806 281.26 34.1802 281.26 34.1799C281.26 34.1795 281.26 34.1791 281.26 34.1788C281.26 34.1784 281.26 34.1781 281.26 34.1777C281.26 34.1774 281.26 34.177 281.26 34.1766C281.26 34.1763 281.26 34.1759 281.26 34.1756C281.26 34.1752 281.26 34.1748 281.26 34.1745C281.26 34.1741 281.26 34.1738 281.26 34.1734C281.26 34.1731 281.26 34.1727 281.26 34.1723C281.26 34.172 281.26 34.1716 281.26 34.1713C281.26 34.1709 281.26 34.1706 281.26 34.1702C281.26 34.1698 281.26 34.1695 281.26 34.1691C281.26 34.1688 281.26 34.1684 281.26 34.1681C281.26 34.1677 281.26 34.1673 281.26 34.167C281.26 34.1666 281.26 34.1663 281.26 34.1659C281.26 34.1656 281.26 34.1652 281.26 34.1648C281.26 34.1645 281.26 34.1641 281.26 34.1638C281.26 34.1634 281.26 34.1631 281.26 34.1627C281.26 34.1624 281.26 34.162 281.26 34.1616C281.26 34.1613 281.26 34.1609 281.26 34.1606C281.26 34.1602 281.26 34.1599 281.26 34.1595C281.26 34.1592 281.26 34.1588 281.26 34.1584C281.26 34.1581 281.26 34.1577 281.26 34.1574C281.26 34.157 281.26 34.1567 281.26 34.1563C281.26 34.156 281.26 34.1556 281.26 34.1553C281.26 34.1549 281.26 34.1545 281.26 34.1542C281.26 34.1538 281.26 34.1535 281.26 34.1531C281.26 34.1528 281.26 34.1524 281.26 34.1521C281.26 34.1517 281.26 34.1514 281.26 34.151C281.26 34.1506 281.26 34.1503 281.26 34.1499C281.26 34.1496 281.26 34.1492 281.26 34.1489C281.26 34.1485 281.26 34.1482 281.26 34.1478C281.26 34.1475 281.26 34.1471 281.26 34.1468C281.26 34.1464 281.26 34.1461 281.26 34.1457C281.26 34.1453 281.26 34.145 281.26 34.1446C281.26 34.1443 281.26 34.1439 281.26 34.1436C281.26 34.1432 281.26 34.1429 281.26 34.1425C281.26 34.1422 281.26 34.1418 281.26 34.1415C281.26 34.1411 281.26 34.1408 281.26 34.1404C281.26 34.1401 281.26 34.1397 281.26 34.1394C281.26 34.139 281.26 34.1387 281.26 34.1383C281.26 34.1379 281.26 34.1376 281.26 34.1372C281.26 34.1369 281.26 34.1365 281.26 34.1362C281.26 34.1358 281.26 34.1355 281.26 34.1351C281.26 34.1348 281.26 34.1344 281.26 34.1341C281.26 34.1337 281.26 34.1334 281.26 34.133C281.26 34.1327 281.26 34.1323 281.26 34.132C281.26 34.1316 281.26 34.1313 281.26 34.1309C281.26 34.1306 281.26 34.1302 281.26 34.1299C281.26 34.1295 281.26 34.1292 281.26 34.1288C281.26 34.1285 281.26 34.1281 281.26 34.1278C281.26 34.1274 281.26 34.1271 281.26 34.1267C281.26 34.1264 281.26 34.126 281.26 34.1257C281.26 34.1253 281.26 34.125 281.26 34.1246C281.26 34.1243 281.26 34.1239 281.26 34.1236C281.26 34.1232 281.26 34.1229 281.26 34.1225C281.26 34.1222 281.26 34.1218 281.26 34.1215C281.26 34.1211 281.26 34.1208 281.26 34.1204C281.26 34.1201 281.26 34.1198 281.26 34.1194C281.26 34.1191 281.26 34.1187 281.26 34.1184C281.26 34.118 281.26 34.1177 281.26 34.1173C281.26 34.117 281.26 34.1166 281.26 34.1163C281.26 34.1159 281.26 34.1156 281.26 34.1152C281.26 34.1149 281.26 34.1145 281.26 34.1142C281.26 34.1138 281.26 34.1135 281.26 34.1131C281.26 34.1128 281.26 34.1124 281.26 34.1121C281.26 34.1118 281.26 34.1114 281.26 34.1111C281.26 34.1107 281.26 34.1104 281.26 34.11C281.26 34.1097 281.26 34.1093 281.26 34.109C281.26 34.1086 281.26 34.1083 281.26 34.1079C281.26 34.1076 281.26 34.1072 281.26 34.1069C281.26 34.1066 281.26 34.1062 281.26 34.1059C281.26 34.1055 281.26 34.1052 281.26 34.1048C281.26 34.1045 281.26 34.1041 281.26 34.1038C281.26 34.1034 281.26 34.1031 281.26 34.1028C281.26 34.1024 281.26 34.1021 281.26 34.1017C281.26 34.1014 281.26 34.101 281.26 34.1007C281.26 34.1003 281.26 34.1 281.26 34.0996C281.26 34.0993 281.26 34.099 281.26 34.0986C281.26 34.0983 281.26 34.0979 281.26 34.0976C281.26 34.0972 281.26 34.0969 281.26 34.0965C281.26 34.0962 281.26 34.0959 281.26 34.0955C281.26 34.0952 281.26 34.0948 281.26 34.0945C281.26 34.0941 281.26 34.0938 281.26 34.0935C281.26 34.0931 281.26 34.0928 281.26 34.0924C281.26 34.0921 281.26 34.0917 281.26 34.0914C281.26 34.091 281.26 34.0907 281.26 34.0904C281.26 34.09 281.26 34.0897 281.26 34.0893C281.26 34.089 281.26 34.0886 281.26 34.0883C281.26 34.088 281.26 34.0876 281.26 34.0873C281.26 34.0869 281.26 34.0866 281.26 34.0863C281.26 34.0859 281.26 34.0856 281.26 34.0852C281.26 34.0849 281.26 34.0845 281.26 34.0842C281.26 34.0839 281.26 34.0835 281.26 34.0832C281.26 34.0828 281.26 34.0825 281.26 34.0821C281.26 34.0818 281.26 34.0815 281.26 34.0811C281.26 34.0808 281.26 34.0804 281.26 34.0801C281.26 34.0798 281.26 34.0794 281.26 34.0791C281.26 34.0787 281.26 34.0784 281.26 34.0781C281.26 34.0777 281.26 34.0774 281.26 34.077C281.26 34.0767 281.26 34.0763 281.26 34.076C281.26 34.0757 281.26 34.0753 281.26 34.075C281.26 34.0746 281.26 34.0743 281.26 34.074C281.26 34.0736 281.26 34.0733 281.26 34.0729C281.26 34.0726 281.26 34.0723 281.26 34.0719C281.26 34.0716 281.26 34.0712 281.26 34.0709C281.26 34.0706 281.26 34.0702 281.26 34.0699C281.26 34.0695 281.26 34.0692 281.26 34.0689C281.26 34.0685 281.26 34.0682 281.26 34.0679C281.26 34.0675 281.26 34.0672 281.26 34.0668C281.26 34.0665 281.26 34.0662 281.26 34.0658C281.26 34.0655 281.26 34.0651 281.26 34.0648C281.26 34.0645 281.26 34.0641 281.26 34.0638C281.26 34.0635 281.26 34.0631 281.26 34.0628C281.26 34.0624 281.26 34.0621 281.26 34.0618C281.26 34.0614 281.26 34.0611 281.26 34.0607C281.26 34.0604 281.26 34.0601 281.26 34.0597C281.26 34.0594 281.26 34.0591 281.26 34.0587C281.26 34.0584 281.26 34.058 281.26 34.0577C281.26 34.0574 281.26 34.057 281.26 34.0567C281.26 34.0564 281.26 34.056 281.26 34.0557C281.26 34.0554 281.26 34.055 281.26 34.0547C281.26 34.0543 281.26 34.054 281.26 34.0537C281.26 34.0533 281.26 34.053 281.26 34.0527C281.26 34.0523 281.26 34.052 281.26 34.0517C281.26 34.0513 281.26 34.051 281.26 34.0506C281.26 34.0503 281.26 34.05 281.26 34.0496C281.26 34.0493 281.26 34.049 281.26 34.0486C281.26 34.0483 281.26 34.048 281.26 34.0476C281.26 34.0473 281.26 34.047 281.26 34.0466C281.26 34.0463 281.26 34.0459 281.26 34.0456C281.26 34.0453 281.26 34.0449 281.26 34.0446C281.26 34.0443 281.26 34.0439 281.26 34.0436C281.26 34.0433 281.26 34.0429 281.26 34.0426C281.26 34.0423 281.26 34.0419 281.26 34.0416C281.26 34.0413 281.26 34.0409 281.26 34.0406C281.26 34.0403 281.26 34.0399 281.26 34.0396C281.26 34.0393 281.26 34.0389 281.26 34.0386C281.26 34.0383 281.26 34.0379 281.26 34.0376C281.26 34.0373 281.26 34.0369 281.26 34.0366C281.26 34.0363 281.26 34.0359 281.26 34.0356C281.26 34.0353 281.26 34.0349 281.26 34.0346C281.26 34.0343 281.26 34.0339 281.26 34.0336C281.26 34.0333 281.26 34.0329 281.26 34.0326C281.26 34.0323 281.26 34.0319 281.26 34.0316C281.26 34.0313 281.26 34.0309 281.26 34.0306C281.26 34.0303 281.26 34.0299 281.26 34.0296C281.26 34.0293 281.26 34.0289 281.26 34.0286C281.26 34.0283 281.26 34.0279 281.26 34.0276C281.26 34.0273 281.26 34.027 281.26 34.0266C281.26 34.0263 281.26 34.026 281.26 34.0256C281.26 34.0253 281.26 34.025 281.26 34.0246C281.26 34.0243 281.26 34.024 281.26 34.0236C281.26 34.0233 281.26 34.023 281.26 34.0226C281.26 34.0223 281.26 34.022 281.26 34.0217C281.26 34.0213 281.26 34.021 281.26 34.0207C281.26 34.0203 281.26 34.02 281.26 34.0197C281.26 34.0193 281.26 34.019 281.26 34.0187C281.26 34.0184 281.26 34.018 281.26 34.0177C281.26 34.0174 281.26 34.017 281.26 34.0167C281.26 34.0164 281.26 34.016 281.26 34.0157C281.26 34.0154 281.26 34.0151 281.26 34.0147C281.26 34.0144 281.26 34.0141 281.26 34.0137C281.26 34.0134 281.26 34.0131 281.26 34.0128C281.26 34.0124 281.26 34.0121 281.26 34.0118C281.26 34.0114 281.26 34.0111 281.26 34.0108C281.26 34.0105 281.26 34.0101 281.26 34.0098C281.26 34.0095 281.26 34.0091 281.26 34.0088C281.26 34.0085 281.26 34.0082 281.26 34.0078C281.26 34.0075 281.26 34.0072 281.26 34.0068C281.26 34.0065 281.26 34.0062 281.26 34.0059C281.26 34.0055 281.26 34.0052 281.26 34.0049C281.26 34.0046 281.26 34.0042 281.26 34.0039C281.26 34.0036 281.26 34.0032 281.26 34.0029C281.26 34.0026 281.26 34.0023 281.26 34.0019C281.26 34.0016 281.26 34.0013 281.26 34.001C281.26 34.0006 281.26 34.0003 281.26 34C281.26 33.9997 281.26 33.9993 281.26 33.999C281.26 33.9987 281.26 33.9983 281.26 33.998C281.26 33.9977 281.26 33.9974 281.26 33.997C281.26 33.9967 281.26 33.9964 281.26 33.9961C281.26 33.9957 281.26 33.9954 281.26 33.9951C281.26 33.9948 281.26 33.9944 281.26 33.9941C281.26 33.9938 281.26 33.9935 281.26 33.9931C281.26 33.9928 281.26 33.9925 281.26 33.9922C281.26 33.9918 281.26 33.9915 281.26 33.9912C281.26 33.9909 281.26 33.9905 281.26 33.9902C281.26 33.9899 281.26 33.9896 281.26 33.9892C281.26 33.9889 281.26 33.9886 281.26 33.9883C281.26 33.9879 281.26 33.9876 281.26 33.9873C281.26 33.987 281.26 33.9866 281.26 33.9863C281.26 33.986 281.26 33.9857 281.26 33.9854C281.26 33.985 281.26 33.9847 281.26 33.9844C281.26 33.9841 281.26 33.9837 281.26 33.9834C281.26 33.9831 281.26 33.9828 281.26 33.9824C281.26 33.9821 281.26 33.9818 281.26 33.9815C281.26 33.9812 281.26 33.9808 281.26 33.9805C281.26 33.9802 281.26 33.9799 281.26 33.9795C281.26 33.9792 281.26 33.9789 281.26 33.9786C281.26 33.9782 281.26 33.9779 281.26 33.9776C281.26 33.9773 281.26 33.977 281.26 33.9766C281.26 33.9763 281.26 33.976 281.26 33.9757C281.26 33.9754 281.26 33.975 281.26 33.9747C281.26 33.9744 281.26 33.9741 281.26 33.9737C281.26 33.9734 281.26 33.9731 281.26 33.9728C281.26 33.9725 281.26 33.9721 281.26 33.9718C281.26 33.9715 281.26 33.9712 281.26 33.9709C281.26 33.9705 281.26 33.9702 281.26 33.9699C281.26 33.9696 281.26 33.9692 281.26 33.9689C281.26 33.9686 281.26 33.9683 281.26 33.968C281.26 33.9676 281.26 33.9673 281.26 33.967C281.26 33.9667 281.26 33.9664 281.26 33.966C281.26 33.9657 281.26 33.9654 281.26 33.9651C281.26 33.9648 281.26 33.9644 281.26 33.9641C281.26 33.9638 281.26 33.9635 281.26 33.9632C281.26 33.9629 281.26 33.9625 281.26 33.9622C281.26 33.9619 281.26 33.9616 281.26 33.9613C281.26 33.9609 281.26 33.9606 281.26 33.9603C281.26 33.96 281.26 33.9597 281.26 33.9593C281.26 33.959 281.26 33.9587 281.26 33.9584C281.26 33.9581 281.26 33.9578 281.26 33.9574C281.26 33.9571 281.26 33.9568 281.26 33.9565C281.26 33.9562 281.26 33.9558 281.26 33.9555C281.26 33.9552 281.26 33.9549 281.26 33.9546C281.26 33.9543 281.26 33.9539 281.26 33.9536C281.26 33.9533 281.26 33.953 281.26 33.9527C281.26 33.9523 281.26 33.952 281.26 33.9517C281.26 33.9514 281.26 33.9511 281.26 33.9508C281.26 33.9504 281.26 33.9501 281.26 33.9498C281.26 33.9495 281.26 33.9492 281.26 33.9489C281.26 33.9485 281.26 33.9482 281.26 33.9479C281.26 33.9476 281.26 33.9473 281.26 33.947C281.26 33.9466 281.26 33.9463 281.26 33.946C281.26 33.9457 281.26 33.9454 281.26 33.9451C281.26 33.9448 281.26 33.9444 281.26 33.9441C281.26 33.9438 281.26 33.9435 281.26 33.9432C281.26 33.9429 281.26 33.9425 281.26 33.9422C281.26 33.9419 281.26 33.9416 281.26 33.9413C281.26 33.941 281.26 33.9407 281.26 33.9403C281.26 33.94 281.26 33.9397 281.26 33.9394C281.26 33.9391 281.26 33.9388 281.26 33.9384C281.26 33.9381 281.26 33.9378 281.26 33.9375C281.26 33.9372 281.26 33.9369 281.26 33.9366C281.26 33.9362 281.26 33.9359 281.26 33.9356C281.26 33.9353 281.26 33.935 281.26 33.9347C281.26 33.9344 281.26 33.9341 281.26 33.9337C281.26 33.9334 281.26 33.9331 281.26 33.9328C281.26 33.9325 281.26 33.9322 281.26 33.9319C281.26 33.9315 281.26 33.9312 281.26 33.9309C281.26 33.9306 281.26 33.9303 281.26 33.93C281.26 33.9297 281.26 33.9294 281.26 33.929C281.26 33.9287 281.26 33.9284 281.26 33.9281C281.26 33.9278 281.26 33.9275 281.26 33.9272C281.26 33.9269 281.26 33.9265 281.26 33.9262C281.26 33.9259 281.26 33.9256 281.26 33.9253C281.26 33.925 281.26 33.9247 281.26 33.9244C281.26 33.924 281.26 33.9237 281.26 33.9234C281.26 33.9231 281.26 33.9228 281.26 33.9225C281.26 33.9222 281.26 33.9219 281.26 33.9216C281.26 33.9212 281.26 33.9209 281.26 33.9206C281.26 33.9203 281.26 33.92 281.26 33.9197C281.26 33.9194 281.26 33.9191 281.26 33.9188C281.26 33.9184 281.26 33.9181 281.26 33.9178C281.26 33.9175 281.26 33.9172 281.26 33.9169C281.26 33.9166 281.26 33.9163 281.26 33.916C281.26 33.9157 281.26 33.9153 281.26 33.915C281.26 33.9147 281.26 33.9144 281.26 33.9141C281.26 33.9138 281.26 33.9135 281.26 33.9132C281.26 33.9129 281.26 33.9126 281.26 33.9122C281.26 33.9119 281.26 33.9116 281.26 33.9113C281.26 33.911 281.26 33.9107 281.26 33.9104C281.26 33.9101 281.26 33.9098 281.26 33.9095C281.26 33.9092 281.26 33.9088 281.26 33.9085C281.26 33.9082 281.26 33.9079 281.26 33.9076C281.26 33.9073 281.26 33.907 281.26 33.9067C281.26 33.9064 281.26 33.9061 281.26 33.9058C281.26 33.9055 281.26 33.9051 281.26 33.9048C281.26 33.9045 281.26 33.9042 281.26 33.9039C281.26 33.9036 281.26 33.9033 281.26 33.903C281.26 33.9027 281.26 33.9024 281.26 33.9021C281.26 33.9018 281.26 33.9015 281.26 33.9012C281.26 33.9008 281.26 33.9005 281.26 33.9002C281.26 33.8999 281.26 33.8996 281.26 33.8993C281.26 33.899 281.26 33.8987 281.26 33.8984C281.26 33.8981 281.26 33.8978 281.26 33.8975C281.26 33.8972 281.26 33.8969 281.26 33.8966C281.26 33.8962 281.26 33.8959 281.26 33.8956C281.26 33.8953 281.26 33.895 281.26 33.8947C281.26 33.8944 281.26 33.8941 281.26 33.8938C281.26 33.8935 281.26 33.8932 281.26 33.8929C281.26 33.8926 281.26 33.8923 281.26 33.892C281.26 33.8917 281.26 33.8914 281.26 33.891C281.26 33.8907 281.26 33.8904 281.26 33.8901C281.26 33.8898 281.26 33.8895 281.26 33.8892C281.26 33.8889 281.26 33.8886 281.26 33.8883C281.26 33.888 281.26 33.8877 281.26 33.8874C281.26 33.8871 281.26 33.8868 281.26 33.8865C281.26 33.8862 281.26 33.8859 281.26 33.8856C281.26 33.8853 281.26 33.885 281.26 33.8847C281.26 33.8844 281.26 33.884 281.26 33.8837C281.26 33.8834 281.26 33.8831 281.26 33.8828C281.26 33.8825 281.26 33.8822 281.26 33.8819C281.26 33.8816 281.26 33.8813 281.26 33.881C281.26 33.8807 281.26 33.8804 281.26 33.8801C281.26 33.8798 281.26 33.8795 281.26 33.8792C281.26 33.8789 281.26 33.8786 281.26 33.8783C281.26 33.878 281.26 33.8777 281.26 33.8774C281.26 33.8771 281.26 33.8768 281.26 33.8765C281.26 33.8762 281.26 33.8759 281.26 33.8756C281.26 33.8753 281.26 33.875 281.26 33.8747C281.26 33.8744 281.26 33.8741 281.26 33.8738C281.26 33.8735 281.26 33.8732 281.26 33.8729C281.26 33.8726 281.26 33.8723 281.26 33.872C281.26 33.8717 281.26 33.8714 281.26 33.8711C281.26 33.8707 281.26 33.8704 281.26 33.8701C281.26 33.8698 281.26 33.8695 281.26 33.8692C281.26 33.8689 281.26 33.8686 281.26 33.8683C281.26 33.868 281.26 33.8677 281.26 33.8674C281.26 33.8671 281.26 33.8668 281.26 33.8665C281.26 33.8662 281.26 33.8659 281.26 33.8656C281.26 33.8653 281.26 33.865 281.26 33.8647C281.26 33.8644 281.26 33.8641 281.26 33.8638C281.26 33.8635 281.26 33.8632 281.26 33.8629C281.26 33.8626 281.26 33.8623 281.26 33.862C281.26 33.8617 281.26 33.8615 281.26 33.8612C281.26 33.8609 281.26 33.8606 281.26 33.8603C281.26 33.86 281.26 33.8597 281.26 33.8594C281.26 33.8591 281.26 33.8588 281.26 33.8585C281.26 33.8582 281.26 33.8579 281.26 33.8576C281.26 33.8573 281.26 33.857 281.26 33.8567C281.26 33.8564 281.26 33.8561 281.26 33.8558C281.26 33.8555 281.26 33.8552 281.26 33.8549C281.26 33.8546 281.26 33.8543 281.26 33.854C281.26 33.8537 281.26 33.8534 281.26 33.8531C281.26 33.8528 281.26 33.8525 281.26 33.8522C281.26 33.8519 281.26 33.8516 281.26 33.8513C281.26 33.851 281.26 33.8507 281.26 33.8504C281.26 33.8501 281.26 33.8498 281.26 33.8495C281.26 33.8492 281.26 33.8489 281.26 33.8487C281.26 33.8484 281.26 33.8481 281.26 33.8478C281.26 33.8475 281.26 33.8472 281.26 33.8469C281.26 33.8466 281.26 33.8463 281.26 33.846C281.26 33.8457 281.26 33.8454 281.26 33.8451C281.26 33.8448 281.26 33.8445 281.26 33.8442C281.26 33.8439 281.26 33.8436 281.26 33.8433C281.26 33.843 281.26 33.8427 281.26 33.8424C281.26 33.8421 281.26 33.8419 281.26 33.8416C281.26 33.8413 281.26 33.841 281.26 33.8407C281.26 33.8404 281.26 33.8401 281.26 33.8398C281.26 33.8395 281.26 33.8392 281.26 33.8389C281.26 33.8386 281.26 33.8383 281.26 33.838C281.26 33.8377 281.26 33.8374 281.26 33.8371C281.26 33.8368 281.26 33.8366 281.26 33.8363C281.26 33.836 281.26 33.8357 281.26 33.8354C281.26 33.8351 281.26 33.8348 281.26 33.8345C281.26 33.8342 281.26 33.8339 281.26 33.8336C281.26 33.8333 281.26 33.833 281.26 33.8327C281.26 33.8324 281.26 33.8322 281.26 33.8319C281.26 33.8316 281.26 33.8313 281.26 33.831C281.26 33.8307 281.26 33.8304 281.26 33.8301C281.26 33.8298 281.26 33.8295 281.26 33.8292C281.26 33.8289 281.26 33.8286 281.26 33.8284C281.26 33.8281 281.26 33.8278 281.26 33.8275C281.26 33.8272 281.26 33.8269 281.26 33.8266C281.26 33.8263 281.26 33.826 281.26 33.8257C281.26 33.8254 281.26 33.8251 281.26 33.8248C281.26 33.8246 281.26 33.8243 281.26 33.824C281.26 33.8237 281.26 33.8234 281.26 33.8231C281.26 33.8228 281.26 33.8225 281.26 33.8222C281.26 33.8219 281.26 33.8216 281.26 33.8214C281.26 33.8211 281.26 33.8208 281.26 33.8205C281.26 33.8202 281.26 33.8199 281.26 33.8196C281.26 33.8193 281.26 33.819 281.26 33.8187C281.26 33.8185 281.26 33.8182 281.26 33.8179C281.26 33.8176 281.26 33.8173 281.26 33.817C281.26 33.8167 281.26 33.8164 281.26 33.8161C281.26 33.8158 281.26 33.8156 281.26 33.8153C281.26 33.815 281.26 33.8147 281.26 33.8144C281.26 33.8141 281.26 33.8138 281.26 33.8135C281.26 33.8132 281.26 33.813 281.26 33.8127C281.26 33.8124 281.26 33.8121 281.26 33.8118C281.26 33.8115 281.26 33.8112 281.26 33.8109C281.26 33.8106 281.26 33.8104 281.26 33.8101C281.26 33.8098 281.26 33.8095 281.26 33.8092C281.26 33.8089 281.26 33.8086 281.26 33.8083C281.26 33.8081 281.26 33.8078 281.26 33.8075C281.26 33.8072 281.26 33.8069 281.26 33.8066C281.26 33.8063 281.26 33.806 281.26 33.8058C281.26 33.8055 281.26 33.8052 281.26 33.8049C281.26 33.8046 281.26 33.8043 281.26 33.804C281.26 33.8037 281.26 33.8035 281.26 33.8032C281.26 33.8029 281.26 33.8026 281.26 33.8023C281.26 33.802 281.26 33.8017 281.26 33.8015C281.26 33.8012 281.26 33.8009 281.26 33.8006C281.26 33.8003 281.26 33.8 281.26 33.7997C281.26 33.7995 281.26 33.7992 281.26 33.7989C281.26 33.7986 281.26 33.7983 281.26 33.798C281.26 33.7977 281.26 33.7975 281.26 33.7972C281.26 33.7969 281.26 33.7966 281.26 33.7963C281.26 33.796 281.26 33.7957 281.26 33.7955H280.26ZM280.26 34.3062V35.3062H288V34.3062V33.3062H280.26V34.3062ZM288 34.3062L287 34.2883C286.952 36.9819 286.398 39.2779 285.372 41.2061L286.255 41.6758L287.138 42.1455C288.337 39.8904 288.947 37.2733 289 34.3241L288 34.3062ZM286.255 41.6758V40.6758H278.667V41.6758V42.6758H286.255V41.6758ZM263.036 28.0311V27.0311H252.869V28.0311V29.0311H263.036V28.0311ZM252.869 28.0311H253.869V27.0825H252.869H251.869V28.0311H252.869ZM252.869 27.0825V28.0825H263.036V27.0825V26.0825H252.869V27.0825ZM263.036 27.0825H262.036V28.0311H263.036H264.036V27.0825H263.036ZM254.766 35.3278V34.3278H233.216V35.3278V36.3278H254.766V35.3278ZM233.216 35.3278H234.216V34.3792H233.216H232.216V35.3278H233.216ZM233.216 34.3792V35.3792H254.766V34.3792V33.3792H233.216V34.3792ZM254.766 34.3792H253.766V35.3278H254.766H255.766V34.3792H254.766ZM276.998 51.4534V50.4534H266.754V51.4534V52.4534H276.998V51.4534ZM266.754 51.4534H267.754V50.4318H266.754H265.754V51.4534H266.754ZM266.754 50.4318V51.4318H276.998V50.4318V49.4318H266.754V50.4318ZM276.998 50.4318H275.998V51.4534H276.998H277.998V50.4318H276.998ZM250.744 52.6208V51.6208H240.501V52.6208V53.6208H250.744V52.6208ZM240.501 52.6208H241.501V51.6723H240.501H239.501V52.6208H240.501ZM240.501 51.6723V52.6723H250.744V51.6723V50.6723H240.501V51.6723ZM250.744 51.6723H249.744V52.6208H250.744H251.744V51.6723H250.744ZM275.556 61.6687V60.6687H254.083V61.6687V62.6687H275.556V61.6687ZM254.083 61.6687H255.083V60.7931H254.083H253.083V61.6687H254.083ZM254.083 60.7931V61.7931H275.556V60.7931V59.7931H254.083V60.7931ZM275.556 60.7931H274.556V61.6687H275.556H276.556V60.7931H275.556ZM19 251V252H202V251V250H19V251ZM15 17H14V247H15H16V17H15ZM206 247H207V17H206H205V247H206ZM179.107 233.469V232.469H41.8931V233.469V234.469H179.107V233.469Z" fill="#CCCCCC" mask="url(#path-1-outside-1_103_389)"/>
</svg>
